<?xml version="1.0" encoding="utf-8"?>
<!-- Generator: Adobe Illustrator 16.0.3, SVG Export Plug-In . SVG Version: 6.00 Build 0)  -->
<!DOCTYPE svg PUBLIC "-//W3C//DTD SVG 1.1//EN" "http://www.w3.org/Graphics/SVG/1.1/DTD/svg11.dtd">
<svg version="1.1" xmlns="http://www.w3.org/2000/svg" xmlns:xlink="http://www.w3.org/1999/xlink" x="0px" y="0px" width="960px"
	 height="560px" viewBox="0 0 960 560" enable-background="new 0 0 960 560" xml:space="preserve">
<g id="Capa_2">
	
		<radialGradient id="SVGID_1_" cx="671.9912" cy="254.4072" r="214.8518" gradientTransform="matrix(0.9968 -0.0803 0.0803 0.9968 -18.1655 51.8407)" gradientUnits="userSpaceOnUse">
		<stop  offset="0" style="stop-color:#CCCCCC"/>
		<stop  offset="0.3497" style="stop-color:#CECECE"/>
		<stop  offset="0.5035" style="stop-color:#D5D5D5"/>
		<stop  offset="0.6187" style="stop-color:#E2E2E2"/>
		<stop  offset="0.6452" style="stop-color:#E6E6E6"/>
		<stop  offset="0.8011" style="stop-color:#E6E6E6"/>
		<stop  offset="0.8011" style="stop-color:#E6E6E6"/>
		<stop  offset="1" style="stop-color:#E6E6E6"/>
	</radialGradient>
	<polygon fill="url(#SVGID_1_)" stroke="#000000" stroke-miterlimit="10" points="626.511,38.622 718.377,175.995 876.971,130.895 
		776.25,260.526 868.324,400.468 711.877,343.923 608.535,473.117 614.497,306.527 457.304,248.748 619.752,203.336 	"/>
	<polygon fill="#FFFFFF" stroke="#FFFFFF" stroke-miterlimit="10" points="634.683,67.131 714.74,186.851 852.956,147.546 
		765.178,260.517 845.419,382.476 709.077,333.196 619.015,445.79 624.211,300.607 487.221,250.255 628.79,210.678 	"/>
	
		<radialGradient id="SVGID_2_" cx="704.3477" cy="263.1533" r="137.5605" gradientTransform="matrix(0.8418 0.5398 -0.5398 0.8418 232.0817 -351.4469)" gradientUnits="userSpaceOnUse">
		<stop  offset="0" style="stop-color:#CCCCCC"/>
		<stop  offset="0.3497" style="stop-color:#CECECE"/>
		<stop  offset="0.5035" style="stop-color:#D5D5D5"/>
		<stop  offset="0.6187" style="stop-color:#E2E2E2"/>
		<stop  offset="0.6452" style="stop-color:#E6E6E6"/>
		<stop  offset="0.8011" style="stop-color:#E6E6E6"/>
		<stop  offset="0.8011" style="stop-color:#E6E6E6"/>
		<stop  offset="1" style="stop-color:#E6E6E6"/>
	</radialGradient>
	<polygon fill="url(#SVGID_2_)" stroke="#000000" stroke-miterlimit="10" points="742.26,124.165 735.791,229.773 834.077,268.294 
		732.498,295.277 725.141,402.276 667.365,312.803 564.619,338.55 632.255,255.992 574.576,165.603 674.946,205.459 	"/>
	
		<radialGradient id="SVGID_3_" cx="677.9502" cy="256.5684" r="137.5561" gradientTransform="matrix(0.9968 -0.0803 0.0803 0.9968 -18.1655 51.8407)" gradientUnits="userSpaceOnUse">
		<stop  offset="0" style="stop-color:#CCCCCC"/>
		<stop  offset="0.3497" style="stop-color:#CECECE"/>
		<stop  offset="0.5035" style="stop-color:#D5D5D5"/>
		<stop  offset="0.6187" style="stop-color:#E2E2E2"/>
		<stop  offset="0.6452" style="stop-color:#E6E6E6"/>
		<stop  offset="0.8011" style="stop-color:#E6E6E6"/>
		<stop  offset="0.8011" style="stop-color:#E6E6E6"/>
		<stop  offset="1" style="stop-color:#E6E6E6"/>
	</radialGradient>
	<polygon fill="url(#SVGID_3_)" stroke="#FCFFF3" stroke-miterlimit="10" points="649.027,116.873 707.843,204.826 809.381,175.95 
		744.897,258.944 803.844,348.54 703.681,312.337 637.518,395.054 641.335,288.396 540.694,251.404 644.699,222.329 	"/>
</g>
<g id="Capa_1">
	<g>
		<g>
			<radialGradient id="SVGID_4_" cx="338.4307" cy="261.3682" r="192.7821" gradientUnits="userSpaceOnUse">
				<stop  offset="0" style="stop-color:#FFF400"/>
				<stop  offset="0.4189" style="stop-color:#FBC023"/>
				<stop  offset="0.5323" style="stop-color:#FCD518"/>
				<stop  offset="0.7449" style="stop-color:#FFF805"/>
				<stop  offset="0.8605" style="stop-color:#FFED0F"/>
				<stop  offset="1" style="stop-color:#FED921"/>
			</radialGradient>
			<path fill="url(#SVGID_4_)" d="M104.318,247.049l0.846,7.039c-2.247,0.624-3.832,1.838-4.756,3.64
				c-0.925,1.804-1.2,4.256-0.828,7.358l5.773,48.052l0.301,2.502c0.107,0.893,0.403,1.811,0.892,2.755
				c0.487,0.944,1.063,1.731,1.729,2.358c0.713,0.703,1.439,1.176,2.177,1.422c0.738,0.246,1.715,0.354,2.931,0.326l0.854,7.097
				c-7.524,0.903-14.295-0.269-20.312-3.521c-5.301-2.863-9.544-7.065-12.728-12.605c-3.184-5.537-5.255-12.301-6.215-20.291
				c-0.703-5.855-0.555-11.412,0.447-16.667c1.001-5.254,2.811-9.927,5.427-14.019c2.65-4.134,6.001-7.605,10.051-10.414
				c4.049-2.807,8.07-4.452,12.066-4.932L104.318,247.049z M109.767,253.594l-0.846-7.039c1.938,0.083,3.519,0.227,4.744,0.433
				c1.225,0.207,3.456,0.687,6.693,1.439c2.063,0.46,3.423,0.651,4.082,0.572c1.125-0.135,1.918-0.741,2.378-1.82l0.589-1.487
				c0.354-0.987,1.171-1.557,2.45-1.71c1.047-0.126,1.889,0.088,2.526,0.641c0.636,0.553,1.027,1.431,1.172,2.633l2.907,24.201
				c0.187,1.552-0.027,2.718-0.642,3.5c-0.614,0.782-1.368,1.227-2.26,1.333c-0.931,0.112-1.714-0.099-2.348-0.633
				c-0.635-0.533-1.208-1.458-1.721-2.773c-1.183-2.966-2.267-5.275-3.251-6.927c-2.111-3.484-4.37-6.242-6.778-8.274
				c-1.621-1.378-3.199-2.398-4.734-3.061C113.193,253.96,111.54,253.617,109.767,253.594z M119.007,329.025l-0.854-7.098
				c2.997-0.596,6.04-2.121,9.129-4.578c1.648-1.338,3.058-3.032,4.229-5.082c1.17-2.047,1.97-4.238,2.397-6.572
				c0.238-1.287,0.588-2.225,1.049-2.812s1.117-0.931,1.971-1.033c0.931-0.112,1.748,0.144,2.453,0.768
				c0.704,0.624,1.119,1.458,1.245,2.506c0.21,1.745-0.205,3.94-1.245,6.582c-1.04,2.644-2.481,5.138-4.324,7.483
				c-2.252,2.867-4.651,5.084-7.198,6.648C125.313,327.402,122.361,328.465,119.007,329.025z"/>
			<radialGradient id="SVGID_5_" cx="338.4307" cy="261.3682" r="192.7821" gradientUnits="userSpaceOnUse">
				<stop  offset="0" style="stop-color:#FFF400"/>
				<stop  offset="0.4189" style="stop-color:#FBC023"/>
				<stop  offset="0.5323" style="stop-color:#FCD518"/>
				<stop  offset="0.7449" style="stop-color:#FFF805"/>
				<stop  offset="0.8605" style="stop-color:#FFED0F"/>
				<stop  offset="1" style="stop-color:#FED921"/>
			</radialGradient>
			<path fill="url(#SVGID_5_)" d="M173.91,240.282l8.213,68.355c0.182,1.513,0.603,2.564,1.264,3.152
				c0.356,0.352,0.676,0.559,0.96,0.623c0.282,0.064,1.204,0.2,2.764,0.406c1.912,0.203,2.971,1.158,3.176,2.863
				c0.121,1.01-0.285,1.885-1.219,2.625c-0.681,0.555-1.875,0.934-3.581,1.139l-1.978,0.238l-25.946,3.117l-1.513,0.182
				c-1.396,0.167-2.504,0.035-3.323-0.398c-0.819-0.432-1.287-1.133-1.403-2.104c-0.191-1.59,0.458-2.729,1.949-3.42
				c1.229-0.58,1.943-0.932,2.146-1.055c0.201-0.123,0.398-0.373,0.589-0.75c0.392-0.676,0.505-1.692,0.342-3.051l-6.996-58.233
				c-0.163-1.357-0.515-2.317-1.055-2.883c-0.274-0.321-0.524-0.517-0.749-0.588c-0.226-0.071-1.004-0.243-2.335-0.516
				c-1.612-0.317-2.513-1.271-2.704-2.862c-0.116-0.969,0.172-1.762,0.865-2.376s1.738-1.005,3.135-1.173l1.513-0.182
				L173.91,240.282z M196.635,278.625c3.633,0.115,6.449,0.387,8.448,0.814c1.999,0.429,3.842,1.113,5.528,2.05
				c1.773,1.008,3.196,2.292,4.27,3.854c1.073,1.563,1.721,3.274,1.944,5.137l1.447,12.042c0.149,1.242,0.631,1.813,1.445,1.715
				c0.31-0.037,0.562-0.156,0.754-0.355c0.191-0.201,0.451-0.576,0.779-1.127c0.811-1.435,1.721-2.213,2.729-2.334
				c0.659-0.08,1.359,0.19,2.104,0.809c0.743,0.619,1.157,1.277,1.24,1.976c0.145,1.203-0.252,2.735-1.188,4.599
				s-2.177,3.576-3.72,5.139c-1.437,1.471-3.052,2.6-4.846,3.386c-1.794,0.785-3.952,1.33-6.473,1.633
				c-5.119,0.615-9.291-0.369-12.512-2.952c-3.222-2.583-5.147-6.493-5.776-11.729l-1.174-9.773
				c-0.261-2.172-0.433-3.43-0.513-3.774c-0.381-1.528-1.084-2.8-2.111-3.818c-1.288-1.222-2.992-1.823-5.115-1.806l-0.747-6.224
				c2.057-0.562,3.484-1.284,4.283-2.167c0.691-0.792,1.13-1.65,1.313-2.578c0.184-0.926,0.171-2.263-0.039-4.008l-1.852-15.416
				c-0.294-2.443-0.988-4.208-2.083-5.298c-1.095-1.087-2.925-1.832-5.49-2.232l-0.776-6.457l1.513-0.182
				c4.305-0.517,7.988-0.802,11.052-0.855c4.55-0.114,8.74,0.878,12.572,2.975c5.515,2.996,8.672,7.831,9.474,14.5
				c0.657,5.469-0.512,10.153-3.505,14.053c-1.258,1.647-2.791,3.05-4.599,4.211C203.204,275.594,200.411,276.992,196.635,278.625z"
				/>
			<radialGradient id="SVGID_6_" cx="338.4307" cy="261.3682" r="192.7821" gradientUnits="userSpaceOnUse">
				<stop  offset="0" style="stop-color:#FFF400"/>
				<stop  offset="0.4189" style="stop-color:#FBC023"/>
				<stop  offset="0.5323" style="stop-color:#FCD518"/>
				<stop  offset="0.7449" style="stop-color:#FFF805"/>
				<stop  offset="0.8605" style="stop-color:#FFED0F"/>
				<stop  offset="1" style="stop-color:#FED921"/>
			</radialGradient>
			<path fill="url(#SVGID_6_)" d="M266.815,309.675l-25.946,3.116l-1.513,0.183c-1.396,0.167-2.503,0.035-3.322-0.397
				s-1.287-1.133-1.403-2.104c-0.191-1.59,0.458-2.73,1.949-3.421c1.229-0.579,1.943-0.931,2.146-1.054
				c0.201-0.123,0.397-0.373,0.588-0.75c0.392-0.676,0.505-1.693,0.342-3.051l-6.996-58.233c-0.163-1.357-0.514-2.318-1.055-2.883
				c-0.274-0.321-0.524-0.517-0.749-0.588c-0.226-0.071-1.003-0.243-2.334-0.516c-1.612-0.318-2.513-1.271-2.704-2.862
				c-0.116-0.969,0.172-1.762,0.865-2.376s1.738-1.005,3.134-1.173l1.513-0.182l25.946-3.117l1.513-0.182
				c1.396-0.167,2.504-0.035,3.323,0.397s1.287,1.134,1.403,2.104c0.191,1.591-0.46,2.731-1.949,3.421
				c-1.229,0.581-1.945,0.932-2.146,1.055c-0.201,0.123-0.398,0.372-0.589,0.749c-0.391,0.677-0.505,1.694-0.342,3.051l6.996,58.233
				c0.163,1.358,0.515,2.319,1.055,2.883c0.274,0.322,0.524,0.518,0.75,0.59c0.224,0.071,1.002,0.243,2.334,0.516
				c1.61,0.318,2.513,1.271,2.704,2.861c0.116,0.971-0.172,1.762-0.865,2.377c-0.693,0.613-1.738,1.005-3.135,1.172L266.815,309.675
				z"/>
			<radialGradient id="SVGID_7_" cx="338.4307" cy="261.3682" r="192.7821" gradientUnits="userSpaceOnUse">
				<stop  offset="0" style="stop-color:#FFF400"/>
				<stop  offset="0.4189" style="stop-color:#FBC023"/>
				<stop  offset="0.5323" style="stop-color:#FCD518"/>
				<stop  offset="0.7449" style="stop-color:#FFF805"/>
				<stop  offset="0.8605" style="stop-color:#FFED0F"/>
				<stop  offset="1" style="stop-color:#FED921"/>
			</radialGradient>
			<path fill="url(#SVGID_7_)" d="M270.307,228.701l15.301-1.838l0.846,7.039c-1.698,1.266-2.952,2.774-3.765,4.524
				c-1.351,2.838-2.101,6.095-2.249,9.771l-0.156,3.619c-0.06,1.149-0.369,2.081-0.932,2.797c-0.563,0.717-1.331,1.134-2.3,1.25
				c-1.009,0.121-1.874-0.129-2.598-0.75c-0.725-0.621-1.153-1.494-1.289-2.619L270.307,228.701z M316.149,223.193l8.212,68.355
				c0.182,1.512,0.604,2.564,1.264,3.152c0.357,0.352,0.677,0.559,0.96,0.623c0.282,0.064,1.204,0.2,2.764,0.406
				c1.913,0.203,2.972,1.157,3.177,2.863c0.121,1.009-0.285,1.885-1.219,2.625c-0.682,0.555-1.895,0.936-3.64,1.146l-1.92,0.23
				l-25.946,3.117l-1.92,0.23c-1.707,0.205-3.027,0.099-3.963-0.32s-1.466-1.151-1.592-2.198c-0.205-1.707,0.598-2.885,2.408-3.535
				c1.466-0.569,2.329-0.92,2.589-1.049c0.259-0.129,0.502-0.404,0.727-0.826c0.503-0.729,0.663-1.85,0.481-3.361l-8.212-68.356
				L316.149,223.193z M336.278,220.775l2.858,23.793c0.135,1.125-0.076,2.074-0.632,2.849c-0.557,0.775-1.338,1.223-2.347,1.344
				c-0.97,0.117-1.813-0.106-2.529-0.67c-0.718-0.563-1.239-1.395-1.569-2.497l-1.008-3.479c-1.016-3.537-2.516-6.523-4.499-8.96
				c-1.243-1.503-2.82-2.671-4.729-3.504l-0.846-7.039L336.278,220.775z"/>
			<radialGradient id="SVGID_8_" cx="338.4307" cy="261.3682" r="192.7821" gradientUnits="userSpaceOnUse">
				<stop  offset="0" style="stop-color:#FFF400"/>
				<stop  offset="0.4189" style="stop-color:#FBC023"/>
				<stop  offset="0.5323" style="stop-color:#FCD518"/>
				<stop  offset="0.7449" style="stop-color:#FFF805"/>
				<stop  offset="0.8605" style="stop-color:#FFED0F"/>
				<stop  offset="1" style="stop-color:#FED921"/>
			</radialGradient>
			<path fill="url(#SVGID_8_)" d="M384.796,295.501l-25.946,3.116l-1.513,0.183c-1.396,0.167-2.504,0.035-3.323-0.397
				s-1.287-1.133-1.403-2.104c-0.191-1.59,0.458-2.73,1.949-3.421c1.229-0.579,1.944-0.931,2.146-1.054s0.397-0.373,0.588-0.75
				c0.392-0.676,0.505-1.693,0.342-3.051l-6.996-58.233c-0.163-1.357-0.514-2.318-1.055-2.883c-0.274-0.321-0.524-0.517-0.749-0.588
				c-0.225-0.071-1.003-0.243-2.334-0.516c-1.612-0.318-2.513-1.271-2.704-2.862c-0.116-0.969,0.172-1.762,0.865-2.376
				s1.738-1.005,3.135-1.173l1.513-0.182l25.946-3.117l1.513-0.182c1.396-0.167,2.503-0.035,3.322,0.397s1.287,1.134,1.403,2.104
				c0.191,1.591-0.46,2.731-1.949,3.421c-1.229,0.581-1.945,0.932-2.146,1.055c-0.201,0.123-0.398,0.372-0.589,0.749
				c-0.391,0.677-0.505,1.694-0.342,3.051l6.996,58.233c0.163,1.358,0.515,2.319,1.055,2.883c0.274,0.322,0.525,0.518,0.75,0.59
				c0.224,0.071,1.003,0.243,2.334,0.516c1.61,0.318,2.513,1.271,2.704,2.861c0.116,0.971-0.172,1.762-0.865,2.377
				c-0.693,0.613-1.738,1.005-3.134,1.172L384.796,295.501z"/>
			<radialGradient id="SVGID_9_" cx="338.4307" cy="261.3682" r="192.7821" gradientUnits="userSpaceOnUse">
				<stop  offset="0" style="stop-color:#FFF400"/>
				<stop  offset="0.4189" style="stop-color:#FBC023"/>
				<stop  offset="0.5323" style="stop-color:#FCD518"/>
				<stop  offset="0.7449" style="stop-color:#FFF805"/>
				<stop  offset="0.8605" style="stop-color:#FFED0F"/>
				<stop  offset="1" style="stop-color:#FED921"/>
			</radialGradient>
			<path fill="url(#SVGID_9_)" d="M422.479,208.826l0.845,7.039c-2.247,0.624-3.83,1.838-4.755,3.64
				c-0.926,1.804-1.2,4.256-0.827,7.358l5.773,48.052l0.3,2.501c0.107,0.893,0.403,1.811,0.892,2.755
				c0.487,0.945,1.063,1.731,1.729,2.359c0.712,0.702,1.439,1.176,2.177,1.42c0.737,0.247,1.715,0.355,2.931,0.327l0.853,7.097
				c-7.524,0.904-14.294-0.269-20.311-3.52c-5.301-2.864-9.545-7.066-12.728-12.605c-3.183-5.538-5.254-12.302-6.214-20.292
				c-0.704-5.855-0.555-11.412,0.446-16.666s2.811-9.927,5.427-14.019c2.65-4.134,6-7.605,10.051-10.414
				c4.049-2.807,8.071-4.452,12.065-4.932L422.479,208.826z M427.929,215.371l-0.846-7.039c1.937,0.083,3.517,0.227,4.743,0.433
				c1.225,0.207,3.455,0.687,6.693,1.439c2.063,0.46,3.422,0.651,4.082,0.571c1.125-0.135,1.918-0.741,2.378-1.819l0.589-1.487
				c0.354-0.987,1.171-1.557,2.45-1.711c1.048-0.125,1.89,0.088,2.526,0.641c0.636,0.554,1.027,1.431,1.171,2.633l2.908,24.201
				c0.187,1.552-0.027,2.718-0.642,3.5c-0.614,0.782-1.367,1.227-2.259,1.333c-0.931,0.112-1.715-0.099-2.349-0.633
				c-0.635-0.533-1.208-1.458-1.721-2.773c-1.183-2.966-2.266-5.275-3.251-6.927c-2.11-3.484-4.371-6.242-6.777-8.274
				c-1.622-1.378-3.201-2.398-4.735-3.061C431.355,215.737,429.701,215.394,427.929,215.371z M437.167,290.803l-0.853-7.098
				c2.997-0.596,6.04-2.121,9.129-4.578c1.647-1.339,3.059-3.033,4.229-5.082c1.171-2.048,1.97-4.239,2.397-6.573
				c0.237-1.287,0.589-2.224,1.049-2.811c0.461-0.586,1.118-0.931,1.972-1.033c0.931-0.112,1.748,0.144,2.451,0.768
				c0.704,0.624,1.121,1.458,1.246,2.506c0.21,1.745-0.205,3.94-1.246,6.582c-1.039,2.644-2.48,5.138-4.323,7.483
				c-2.252,2.868-4.651,5.083-7.198,6.648C443.473,289.18,440.523,290.242,437.167,290.803z"/>
			<radialGradient id="SVGID_10_" cx="338.4307" cy="261.3682" r="192.7821" gradientUnits="userSpaceOnUse">
				<stop  offset="0" style="stop-color:#FFF400"/>
				<stop  offset="0.4189" style="stop-color:#FBC023"/>
				<stop  offset="0.5323" style="stop-color:#FCD518"/>
				<stop  offset="0.7449" style="stop-color:#FFF805"/>
				<stop  offset="0.8605" style="stop-color:#FFED0F"/>
				<stop  offset="1" style="stop-color:#FED921"/>
			</radialGradient>
			<path fill="url(#SVGID_10_)" d="M481.397,218.331l4.413,11.686l-5.782,38.818c-0.181,1.124-0.214,2.15-0.103,3.081
				c0.294,2.443,1.647,4.051,4.063,4.824l2.147,0.686c1.351,0.428,2.106,1.321,2.27,2.678c0.233,1.94-1.066,3.079-3.897,3.419
				l-14.776,1.775c-1.435,0.172-2.605,0.009-3.512-0.492c-0.907-0.5-1.422-1.275-1.548-2.322c-0.136-1.125,0.605-2.158,2.225-3.101
				c1.506-0.889,2.604-1.66,3.293-2.313c0.688-0.652,1.323-1.506,1.905-2.56c0.894-1.72,1.532-3.94,1.914-6.662L481.397,218.331z
				 M483.637,203.072l23.444-2.816l24.385,66.412c0.455,1.166,0.932,2.19,1.432,3.074c0.438,0.695,1.285,1.204,2.544,1.524
				c1.06,0.306,1.809,0.648,2.248,1.028c0.438,0.38,0.702,0.939,0.791,1.675c0.242,2.017-1.149,3.207-4.174,3.57l-29.03,3.487
				c-1.163,0.14-2.128-0.029-2.894-0.508c-0.766-0.478-1.204-1.183-1.316-2.114c-0.093-0.775-0.008-1.375,0.256-1.801
				c0.264-0.425,0.903-0.994,1.92-1.706c0.729-0.48,1.22-0.973,1.475-1.476c0.255-0.502,0.34-1.103,0.256-1.801
				c-0.079-0.659-0.207-1.234-0.384-1.725l-2.876-8.211l-16.23,1.95l0.739-7.111l13.031-1.566l-16.387-46.01L483.637,203.072z"/>
			<radialGradient id="SVGID_11_" cx="338.4307" cy="261.3682" r="192.7821" gradientUnits="userSpaceOnUse">
				<stop  offset="0" style="stop-color:#FFF400"/>
				<stop  offset="0.4189" style="stop-color:#FBC023"/>
				<stop  offset="0.5323" style="stop-color:#FCD518"/>
				<stop  offset="0.7449" style="stop-color:#FFF805"/>
				<stop  offset="0.8605" style="stop-color:#FFED0F"/>
				<stop  offset="1" style="stop-color:#FED921"/>
			</radialGradient>
			<path fill="url(#SVGID_11_)" d="M575.378,272.604l-25.888,3.11l-1.513,0.182c-1.396,0.167-2.504,0.035-3.323-0.397
				c-0.819-0.432-1.287-1.133-1.403-2.103c-0.191-1.59,0.458-2.73,1.949-3.421c1.229-0.58,1.944-0.931,2.146-1.054
				c0.201-0.122,0.397-0.372,0.589-0.75c0.391-0.676,0.504-1.693,0.341-3.05l-6.996-58.233c-0.163-1.357-0.514-2.318-1.054-2.883
				c-0.275-0.321-0.525-0.516-0.75-0.588c-0.225-0.071-1.002-0.243-2.334-0.516c-1.612-0.317-2.513-1.271-2.704-2.862
				c-0.116-0.97,0.172-1.762,0.865-2.376c0.693-0.614,1.738-1.005,3.135-1.173l1.513-0.182l25.946-3.117l1.978-0.238
				c1.707-0.205,2.956-0.119,3.749,0.258c1.083,0.5,1.685,1.253,1.806,2.261c0.205,1.707-0.598,2.885-2.407,3.536
				c-1.471,0.531-2.337,0.87-2.593,1.02c-0.258,0.149-0.521,0.417-0.788,0.803c-0.498,0.768-0.659,1.889-0.482,3.362
				L575.378,272.604z M580.091,272.039l-0.783-6.515c1.857-0.577,3.314-1.146,4.368-1.705c1.055-0.559,2.035-1.307,2.947-2.243
				c1.476-1.476,2.756-3.419,3.844-5.833c1.087-2.412,1.892-5.046,2.415-7.903c0.362-2.207,0.767-3.682,1.209-4.424
				c0.441-0.741,1.165-1.173,2.175-1.294c1.086-0.13,1.935,0.221,2.546,1.051c0.285,0.399,0.504,1.238,0.657,2.518l2.845,23.677
				L580.091,272.039z"/>
		</g>
		<g>
			<path fill="none" stroke="#000000" stroke-miterlimit="10" d="M104.318,247.049l0.846,7.039c-2.247,0.624-3.832,1.838-4.756,3.64
				c-0.925,1.804-1.2,4.256-0.828,7.358l5.773,48.052l0.301,2.502c0.107,0.893,0.403,1.811,0.892,2.755
				c0.487,0.944,1.063,1.731,1.729,2.358c0.713,0.703,1.439,1.176,2.177,1.422c0.738,0.246,1.715,0.354,2.931,0.326l0.854,7.097
				c-7.524,0.903-14.295-0.269-20.312-3.521c-5.301-2.863-9.544-7.065-12.728-12.605c-3.184-5.537-5.255-12.301-6.215-20.291
				c-0.703-5.855-0.555-11.412,0.447-16.667c1.001-5.254,2.811-9.927,5.427-14.019c2.65-4.134,6.001-7.605,10.051-10.414
				c4.049-2.807,8.07-4.452,12.066-4.932L104.318,247.049z M109.767,253.594l-0.846-7.039c1.938,0.083,3.519,0.227,4.744,0.433
				c1.225,0.207,3.456,0.687,6.693,1.439c2.063,0.46,3.423,0.651,4.082,0.572c1.125-0.135,1.918-0.741,2.378-1.82l0.589-1.487
				c0.354-0.987,1.171-1.557,2.45-1.71c1.047-0.126,1.889,0.088,2.526,0.641c0.636,0.553,1.027,1.431,1.172,2.633l2.907,24.201
				c0.187,1.552-0.027,2.718-0.642,3.5c-0.614,0.782-1.368,1.227-2.26,1.333c-0.931,0.112-1.714-0.099-2.348-0.633
				c-0.635-0.533-1.208-1.458-1.721-2.773c-1.183-2.966-2.267-5.275-3.251-6.927c-2.111-3.484-4.37-6.242-6.778-8.274
				c-1.621-1.378-3.199-2.398-4.734-3.061C113.193,253.96,111.54,253.617,109.767,253.594z M119.007,329.025l-0.854-7.098
				c2.997-0.596,6.04-2.121,9.129-4.578c1.648-1.338,3.058-3.032,4.229-5.082c1.17-2.047,1.97-4.238,2.397-6.572
				c0.238-1.287,0.588-2.225,1.049-2.812s1.117-0.931,1.971-1.033c0.931-0.112,1.748,0.144,2.453,0.768
				c0.704,0.624,1.119,1.458,1.245,2.506c0.21,1.745-0.205,3.94-1.245,6.582c-1.04,2.644-2.481,5.138-4.324,7.483
				c-2.252,2.867-4.651,5.084-7.198,6.648C125.313,327.402,122.361,328.465,119.007,329.025z"/>
			<path fill="none" stroke="#000000" stroke-miterlimit="10" d="M173.91,240.282l8.213,68.355c0.182,1.513,0.603,2.564,1.264,3.152
				c0.356,0.352,0.676,0.559,0.96,0.623c0.282,0.064,1.204,0.2,2.764,0.406c1.912,0.203,2.971,1.158,3.176,2.863
				c0.121,1.01-0.285,1.885-1.219,2.625c-0.681,0.555-1.875,0.934-3.581,1.139l-1.978,0.238l-25.946,3.117l-1.513,0.182
				c-1.396,0.167-2.504,0.035-3.323-0.398c-0.819-0.432-1.287-1.133-1.403-2.104c-0.191-1.59,0.458-2.729,1.949-3.42
				c1.229-0.58,1.943-0.932,2.146-1.055c0.201-0.123,0.398-0.373,0.589-0.75c0.392-0.676,0.505-1.692,0.342-3.051l-6.996-58.233
				c-0.163-1.357-0.515-2.317-1.055-2.883c-0.274-0.321-0.524-0.517-0.749-0.588c-0.226-0.071-1.004-0.243-2.335-0.516
				c-1.612-0.317-2.513-1.271-2.704-2.862c-0.116-0.969,0.172-1.762,0.865-2.376s1.738-1.005,3.135-1.173l1.513-0.182
				L173.91,240.282z M196.635,278.625c3.633,0.115,6.449,0.387,8.448,0.814c1.999,0.429,3.842,1.113,5.528,2.05
				c1.773,1.008,3.196,2.292,4.27,3.854c1.073,1.563,1.721,3.274,1.944,5.137l1.447,12.042c0.149,1.242,0.631,1.813,1.445,1.715
				c0.31-0.037,0.562-0.156,0.754-0.355c0.191-0.201,0.451-0.576,0.779-1.127c0.811-1.435,1.721-2.213,2.729-2.334
				c0.659-0.08,1.359,0.19,2.104,0.809c0.743,0.619,1.157,1.277,1.24,1.976c0.145,1.203-0.252,2.735-1.188,4.599
				s-2.177,3.576-3.72,5.139c-1.437,1.471-3.052,2.6-4.846,3.386c-1.794,0.785-3.952,1.33-6.473,1.633
				c-5.119,0.615-9.291-0.369-12.512-2.952c-3.222-2.583-5.147-6.493-5.776-11.729l-1.174-9.773
				c-0.261-2.172-0.433-3.43-0.513-3.774c-0.381-1.528-1.084-2.8-2.111-3.818c-1.288-1.222-2.992-1.823-5.115-1.806l-0.747-6.224
				c2.057-0.562,3.484-1.284,4.283-2.167c0.691-0.792,1.13-1.65,1.313-2.578c0.184-0.926,0.171-2.263-0.039-4.008l-1.852-15.416
				c-0.294-2.443-0.988-4.208-2.083-5.298c-1.095-1.087-2.925-1.832-5.49-2.232l-0.776-6.457l1.513-0.182
				c4.305-0.517,7.988-0.802,11.052-0.855c4.55-0.114,8.74,0.878,12.572,2.975c5.515,2.996,8.672,7.831,9.474,14.5
				c0.657,5.469-0.512,10.153-3.505,14.053c-1.258,1.647-2.791,3.05-4.599,4.211C203.204,275.594,200.411,276.992,196.635,278.625z"
				/>
			<path fill="none" stroke="#000000" stroke-miterlimit="10" d="M266.815,309.675l-25.946,3.116l-1.513,0.183
				c-1.396,0.167-2.503,0.035-3.322-0.397s-1.287-1.133-1.403-2.104c-0.191-1.59,0.458-2.73,1.949-3.421
				c1.229-0.579,1.943-0.931,2.146-1.054c0.201-0.123,0.397-0.373,0.588-0.75c0.392-0.676,0.505-1.693,0.342-3.051l-6.996-58.233
				c-0.163-1.357-0.514-2.318-1.055-2.883c-0.274-0.321-0.524-0.517-0.749-0.588c-0.226-0.071-1.003-0.243-2.334-0.516
				c-1.612-0.318-2.513-1.271-2.704-2.862c-0.116-0.969,0.172-1.762,0.865-2.376s1.738-1.005,3.134-1.173l1.513-0.182l25.946-3.117
				l1.513-0.182c1.396-0.167,2.504-0.035,3.323,0.397s1.287,1.134,1.403,2.104c0.191,1.591-0.46,2.731-1.949,3.421
				c-1.229,0.581-1.945,0.932-2.146,1.055c-0.201,0.123-0.398,0.372-0.589,0.749c-0.391,0.677-0.505,1.694-0.342,3.051l6.996,58.233
				c0.163,1.358,0.515,2.319,1.055,2.883c0.274,0.322,0.524,0.518,0.75,0.59c0.224,0.071,1.002,0.243,2.334,0.516
				c1.61,0.318,2.513,1.271,2.704,2.861c0.116,0.971-0.172,1.762-0.865,2.377c-0.693,0.613-1.738,1.005-3.135,1.172L266.815,309.675
				z"/>
			<path fill="none" stroke="#000000" stroke-miterlimit="10" d="M270.307,228.701l15.301-1.838l0.846,7.039
				c-1.698,1.266-2.952,2.774-3.765,4.524c-1.351,2.838-2.101,6.095-2.249,9.771l-0.156,3.619c-0.06,1.149-0.369,2.081-0.932,2.797
				c-0.563,0.717-1.331,1.134-2.3,1.25c-1.009,0.121-1.874-0.129-2.598-0.75c-0.725-0.621-1.153-1.494-1.289-2.619L270.307,228.701z
				 M316.149,223.193l8.212,68.355c0.182,1.512,0.604,2.564,1.264,3.152c0.357,0.352,0.677,0.559,0.96,0.623
				c0.282,0.064,1.204,0.2,2.764,0.406c1.913,0.203,2.972,1.157,3.177,2.863c0.121,1.009-0.285,1.885-1.219,2.625
				c-0.682,0.555-1.895,0.936-3.64,1.146l-1.92,0.23l-25.946,3.117l-1.92,0.23c-1.707,0.205-3.027,0.099-3.963-0.32
				s-1.466-1.151-1.592-2.198c-0.205-1.707,0.598-2.885,2.408-3.535c1.466-0.569,2.329-0.92,2.589-1.049
				c0.259-0.129,0.502-0.404,0.727-0.826c0.503-0.729,0.663-1.85,0.481-3.361l-8.212-68.356L316.149,223.193z M336.278,220.775
				l2.858,23.793c0.135,1.125-0.076,2.074-0.632,2.849c-0.557,0.775-1.338,1.223-2.347,1.344c-0.97,0.117-1.813-0.106-2.529-0.67
				c-0.718-0.563-1.239-1.395-1.569-2.497l-1.008-3.479c-1.016-3.537-2.516-6.523-4.499-8.96c-1.243-1.503-2.82-2.671-4.729-3.504
				l-0.846-7.039L336.278,220.775z"/>
			<path fill="none" stroke="#000000" stroke-miterlimit="10" d="M384.796,295.501l-25.946,3.116l-1.513,0.183
				c-1.396,0.167-2.504,0.035-3.323-0.397s-1.287-1.133-1.403-2.104c-0.191-1.59,0.458-2.73,1.949-3.421
				c1.229-0.579,1.944-0.931,2.146-1.054s0.397-0.373,0.588-0.75c0.392-0.676,0.505-1.693,0.342-3.051l-6.996-58.233
				c-0.163-1.357-0.514-2.318-1.055-2.883c-0.274-0.321-0.524-0.517-0.749-0.588c-0.225-0.071-1.003-0.243-2.334-0.516
				c-1.612-0.318-2.513-1.271-2.704-2.862c-0.116-0.969,0.172-1.762,0.865-2.376s1.738-1.005,3.135-1.173l1.513-0.182l25.946-3.117
				l1.513-0.182c1.396-0.167,2.503-0.035,3.322,0.397s1.287,1.134,1.403,2.104c0.191,1.591-0.46,2.731-1.949,3.421
				c-1.229,0.581-1.945,0.932-2.146,1.055c-0.201,0.123-0.398,0.372-0.589,0.749c-0.391,0.677-0.505,1.694-0.342,3.051l6.996,58.233
				c0.163,1.358,0.515,2.319,1.055,2.883c0.274,0.322,0.525,0.518,0.75,0.59c0.224,0.071,1.003,0.243,2.334,0.516
				c1.61,0.318,2.513,1.271,2.704,2.861c0.116,0.971-0.172,1.762-0.865,2.377c-0.693,0.613-1.738,1.005-3.134,1.172L384.796,295.501
				z"/>
			<path fill="none" stroke="#000000" stroke-miterlimit="10" d="M422.479,208.826l0.845,7.039c-2.247,0.624-3.83,1.838-4.755,3.64
				c-0.926,1.804-1.2,4.256-0.827,7.358l5.773,48.052l0.3,2.501c0.107,0.893,0.403,1.811,0.892,2.755
				c0.487,0.945,1.063,1.731,1.729,2.359c0.712,0.702,1.439,1.176,2.177,1.42c0.737,0.247,1.715,0.355,2.931,0.327l0.853,7.097
				c-7.524,0.904-14.294-0.269-20.311-3.52c-5.301-2.864-9.545-7.066-12.728-12.605c-3.183-5.538-5.254-12.302-6.214-20.292
				c-0.704-5.855-0.555-11.412,0.446-16.666s2.811-9.927,5.427-14.019c2.65-4.134,6-7.605,10.051-10.414
				c4.049-2.807,8.071-4.452,12.065-4.932L422.479,208.826z M427.929,215.371l-0.846-7.039c1.937,0.083,3.517,0.227,4.743,0.433
				c1.225,0.207,3.455,0.687,6.693,1.439c2.063,0.46,3.422,0.651,4.082,0.571c1.125-0.135,1.918-0.741,2.378-1.819l0.589-1.487
				c0.354-0.987,1.171-1.557,2.45-1.711c1.048-0.125,1.89,0.088,2.526,0.641c0.636,0.554,1.027,1.431,1.171,2.633l2.908,24.201
				c0.187,1.552-0.027,2.718-0.642,3.5c-0.614,0.782-1.367,1.227-2.259,1.333c-0.931,0.112-1.715-0.099-2.349-0.633
				c-0.635-0.533-1.208-1.458-1.721-2.773c-1.183-2.966-2.266-5.275-3.251-6.927c-2.11-3.484-4.371-6.242-6.777-8.274
				c-1.622-1.378-3.201-2.398-4.735-3.061C431.355,215.737,429.701,215.394,427.929,215.371z M437.167,290.803l-0.853-7.098
				c2.997-0.596,6.04-2.121,9.129-4.578c1.647-1.339,3.059-3.033,4.229-5.082c1.171-2.048,1.97-4.239,2.397-6.573
				c0.237-1.287,0.589-2.224,1.049-2.811c0.461-0.586,1.118-0.931,1.972-1.033c0.931-0.112,1.748,0.144,2.451,0.768
				c0.704,0.624,1.121,1.458,1.246,2.506c0.21,1.745-0.205,3.94-1.246,6.582c-1.039,2.644-2.48,5.138-4.323,7.483
				c-2.252,2.868-4.651,5.083-7.198,6.648C443.473,289.18,440.523,290.242,437.167,290.803z"/>
			<path fill="none" stroke="#000000" stroke-miterlimit="10" d="M481.397,218.331l4.413,11.686l-5.782,38.818
				c-0.181,1.124-0.214,2.15-0.103,3.081c0.294,2.443,1.647,4.051,4.063,4.824l2.147,0.686c1.351,0.428,2.106,1.321,2.27,2.678
				c0.233,1.94-1.066,3.079-3.897,3.419l-14.776,1.775c-1.435,0.172-2.605,0.009-3.512-0.492c-0.907-0.5-1.422-1.275-1.548-2.322
				c-0.136-1.125,0.605-2.158,2.225-3.101c1.506-0.889,2.604-1.66,3.293-2.313c0.688-0.652,1.323-1.506,1.905-2.56
				c0.894-1.72,1.532-3.94,1.914-6.662L481.397,218.331z M483.637,203.072l23.444-2.816l24.385,66.412
				c0.455,1.166,0.932,2.19,1.432,3.074c0.438,0.695,1.285,1.204,2.544,1.524c1.06,0.306,1.809,0.648,2.248,1.028
				c0.438,0.38,0.702,0.939,0.791,1.675c0.242,2.017-1.149,3.207-4.174,3.57l-29.03,3.487c-1.163,0.14-2.128-0.029-2.894-0.508
				c-0.766-0.478-1.204-1.183-1.316-2.114c-0.093-0.775-0.008-1.375,0.256-1.801c0.264-0.425,0.903-0.994,1.92-1.706
				c0.729-0.48,1.22-0.973,1.475-1.476c0.255-0.502,0.34-1.103,0.256-1.801c-0.079-0.659-0.207-1.234-0.384-1.725l-2.876-8.211
				l-16.23,1.95l0.739-7.111l13.031-1.566l-16.387-46.01L483.637,203.072z"/>
			<path fill="none" stroke="#000000" stroke-miterlimit="10" d="M575.378,272.604l-25.888,3.11l-1.513,0.182
				c-1.396,0.167-2.504,0.035-3.323-0.397c-0.819-0.432-1.287-1.133-1.403-2.103c-0.191-1.59,0.458-2.73,1.949-3.421
				c1.229-0.58,1.944-0.931,2.146-1.054c0.201-0.122,0.397-0.372,0.589-0.75c0.391-0.676,0.504-1.693,0.341-3.05l-6.996-58.233
				c-0.163-1.357-0.514-2.318-1.054-2.883c-0.275-0.321-0.525-0.516-0.75-0.588c-0.225-0.071-1.002-0.243-2.334-0.516
				c-1.612-0.317-2.513-1.271-2.704-2.862c-0.116-0.97,0.172-1.762,0.865-2.376c0.693-0.614,1.738-1.005,3.135-1.173l1.513-0.182
				l25.946-3.117l1.978-0.238c1.707-0.205,2.956-0.119,3.749,0.258c1.083,0.5,1.685,1.253,1.806,2.261
				c0.205,1.707-0.598,2.885-2.407,3.536c-1.471,0.531-2.337,0.87-2.593,1.02c-0.258,0.149-0.521,0.417-0.788,0.803
				c-0.498,0.768-0.659,1.889-0.482,3.362L575.378,272.604z M580.091,272.039l-0.783-6.515c1.857-0.577,3.314-1.146,4.368-1.705
				c1.055-0.559,2.035-1.307,2.947-2.243c1.476-1.476,2.756-3.419,3.844-5.833c1.087-2.412,1.892-5.046,2.415-7.903
				c0.362-2.207,0.767-3.682,1.209-4.424c0.441-0.741,1.165-1.173,2.175-1.294c1.086-0.13,1.935,0.221,2.546,1.051
				c0.285,0.399,0.504,1.238,0.657,2.518l2.845,23.677L580.091,272.039z"/>
		</g>
	</g>
	<g>
		<g>
			<radialGradient id="SVGID_12_" cx="503.5313" cy="387.4023" r="260.2337" gradientUnits="userSpaceOnUse">
				<stop  offset="0.0051" style="stop-color:#FFF400"/>
				<stop  offset="0.0109" style="stop-color:#FFF301"/>
				<stop  offset="0.3526" style="stop-color:#FBC023"/>
				<stop  offset="0.5051" style="stop-color:#FDD617"/>
				<stop  offset="0.699" style="stop-color:#FFF805"/>
				<stop  offset="1" style="stop-color:#FED921"/>
			</radialGradient>
			<path fill="url(#SVGID_12_)" d="M227.914,382.596l47.234-0.811c10.387,12.438,15.702,25.654,15.942,39.648
				c0.279,16.273-5.447,30.046-17.177,41.315c-11.73,11.271-26.303,17.056-43.714,17.354c-22.622,0.389-41.972-7.864-58.051-24.762
				c-16.082-16.896-24.333-37.674-24.756-62.328c-0.425-24.734,7.255-45.459,23.044-62.172
				c15.786-16.711,35.723-25.275,59.809-25.689c8.218-0.141,17.359,1.371,27.426,4.535l0.851,49.553
				c-7.873-3.527-15.026-5.236-21.453-5.126c-11.637,0.2-21.073,3.985-28.313,11.353c-7.24,7.369-10.76,16.83-10.561,28.383
				c0.202,11.799,3.78,21.099,10.734,27.896c6.954,6.799,16.247,10.098,27.884,9.897c7.403-0.127,11.07-2.345,10.996-6.659
				c-0.057-3.254-2.525-4.84-7.407-4.756l-11.839,0.203L227.914,382.596z"/>
			<radialGradient id="SVGID_13_" cx="503.5313" cy="387.4023" r="260.2337" gradientUnits="userSpaceOnUse">
				<stop  offset="0.0051" style="stop-color:#FFF400"/>
				<stop  offset="0.0109" style="stop-color:#FFF301"/>
				<stop  offset="0.3526" style="stop-color:#FBC023"/>
				<stop  offset="0.5051" style="stop-color:#FDD617"/>
				<stop  offset="0.699" style="stop-color:#FFF805"/>
				<stop  offset="1" style="stop-color:#FED921"/>
			</radialGradient>
			<path fill="url(#SVGID_13_)" d="M371.125,389.902l0.755,43.938l-14.279,0.245l0.682,39.666l-49.554,0.852l-1.82-105.939
				c-0.352-20.505,4.968-36.529,15.962-48.072c10.992-11.543,26.619-17.488,46.88-17.836c19.528-0.336,34.06,4.563,43.595,14.695
				c9.532,10.133,14.485,25.938,14.854,47.419l1.85,107.649l-49.554,0.852l-1.793-104.354c-0.111-6.51-0.964-11.012-2.551-13.508
				c-1.59-2.494-4.38-3.71-8.365-3.642c-7.731,0.134-11.495,5.978-11.297,17.53l0.356,20.749L371.125,389.902z"/>
			<radialGradient id="SVGID_14_" cx="503.5313" cy="387.4023" r="260.2337" gradientUnits="userSpaceOnUse">
				<stop  offset="0.0051" style="stop-color:#FFF400"/>
				<stop  offset="0.0109" style="stop-color:#FFF301"/>
				<stop  offset="0.3526" style="stop-color:#FBC023"/>
				<stop  offset="0.5051" style="stop-color:#FDD617"/>
				<stop  offset="0.699" style="stop-color:#FFF805"/>
				<stop  offset="1" style="stop-color:#FED921"/>
			</radialGradient>
			<path fill="url(#SVGID_14_)" d="M456.656,472.063l-2.063-120.099c-0.256-14.89,4.052-27.131,12.921-36.726
				c8.87-9.594,20.506-14.515,34.909-14.762c17.086-0.294,30.361,7.333,39.826,22.878c5.471-8.558,11.387-14.703,17.754-18.435
				c6.363-3.73,14.266-5.678,23.707-5.84c14.969-0.258,26.523,4.265,34.66,13.565c8.137,9.304,12.357,22.822,12.662,40.56
				l1.99,115.826l-49.553,0.852l-1.863-108.381c-0.092-5.371-0.58-8.922-1.465-10.658c-0.885-1.733-2.629-2.579-5.232-2.534
				c-4.881,0.084-7.252,4.276-7.109,12.575l1.877,109.235l-49.553,0.851l-1.861-108.381c-0.092-5.288-0.6-8.819-1.525-10.595
				c-0.928-1.773-2.691-2.64-5.295-2.595c-4.883,0.084-7.246,4.562-7.094,13.43l1.861,108.381L456.656,472.063z"/>
			<radialGradient id="SVGID_15_" cx="503.5313" cy="387.4023" r="260.2337" gradientUnits="userSpaceOnUse">
				<stop  offset="0.0051" style="stop-color:#FFF400"/>
				<stop  offset="0.0109" style="stop-color:#FFF301"/>
				<stop  offset="0.3526" style="stop-color:#FBC023"/>
				<stop  offset="0.5051" style="stop-color:#FDD617"/>
				<stop  offset="0.699" style="stop-color:#FFF805"/>
				<stop  offset="1" style="stop-color:#FED921"/>
			</radialGradient>
			<path fill="url(#SVGID_15_)" d="M750.15,365.198l0.639,37.104l-32.344,0.556c-4.395,0.076-7.494,0.781-9.303,2.113
				c-1.809,1.334-2.688,3.547-2.633,6.638c0.059,3.5,1.033,5.782,2.926,6.849c1.889,1.066,5.723,1.549,11.5,1.45l33.32-0.573
				l0.818,47.6l-38.936,0.67c-18.309,0.314-32.379-3.818-42.211-12.4c-9.834-8.578-14.893-21.127-15.176-37.646l-1.121-65.297
				c-0.275-15.947,4.092-28.395,13.092-37.34c9.004-8.944,21.805-13.559,38.404-13.844l43.084-0.741l0.822,47.844l-31.611,0.544
				c-8.543,0.146-12.768,2.986-12.674,8.52c0.057,3.255,1.111,5.495,3.168,6.721c2.055,1.229,5.688,1.795,10.895,1.705
				L750.15,365.198z"/>
			<radialGradient id="SVGID_16_" cx="503.5313" cy="387.4023" r="260.2337" gradientUnits="userSpaceOnUse">
				<stop  offset="0.0051" style="stop-color:#FFF400"/>
				<stop  offset="0.0109" style="stop-color:#FFF301"/>
				<stop  offset="0.3526" style="stop-color:#FBC023"/>
				<stop  offset="0.5051" style="stop-color:#FDD617"/>
				<stop  offset="0.699" style="stop-color:#FFF805"/>
				<stop  offset="1" style="stop-color:#FED921"/>
			</radialGradient>
			<path fill="url(#SVGID_16_)" d="M858.871,297.77l0.816,47.479c-3.602-1.159-6.379-1.723-8.33-1.688
				c-3.744,0.063-6.934,1.504-9.572,4.315c-2.637,2.813-3.922,6.172-3.855,10.077c0.059,3.337,1.596,7.542,4.613,12.618l3.896,6.525
				c7.039,11.764,10.654,23.178,10.844,34.242c0.277,16.192-5.244,30.002-16.564,41.428s-25.281,17.282-41.879,17.567
				c-7.977,0.137-15.898-1.558-23.771-5.085l-0.83-48.211c4.77,2.932,8.988,4.363,12.65,4.301c4.311-0.074,7.891-1.376,10.736-3.908
				c2.846-2.531,4.236-5.668,4.172-9.412c-0.041-2.44-2.451-7.729-7.23-15.869c-7.629-12.89-11.555-25.846-11.777-38.865
				c-0.271-15.702,5.09-29.326,16.084-40.87c10.992-11.542,24.26-17.448,39.801-17.715
				C845.51,294.581,852.242,295.606,858.871,297.77z"/>
		</g>
		<g>
			<path fill="none" stroke="#000000" stroke-miterlimit="10" d="M227.914,382.596l47.234-0.811
				c10.387,12.438,15.702,25.654,15.942,39.648c0.279,16.273-5.447,30.046-17.177,41.315c-11.73,11.271-26.303,17.056-43.714,17.354
				c-22.622,0.389-41.972-7.864-58.051-24.762c-16.082-16.896-24.333-37.674-24.756-62.328
				c-0.425-24.734,7.255-45.459,23.044-62.172c15.786-16.711,35.723-25.275,59.809-25.689c8.218-0.141,17.359,1.371,27.426,4.535
				l0.851,49.553c-7.873-3.527-15.026-5.236-21.453-5.126c-11.637,0.2-21.073,3.985-28.313,11.353
				c-7.24,7.369-10.76,16.83-10.561,28.383c0.202,11.799,3.78,21.099,10.734,27.896c6.954,6.799,16.247,10.098,27.884,9.897
				c7.403-0.127,11.07-2.345,10.996-6.659c-0.057-3.254-2.525-4.84-7.407-4.756l-11.839,0.203L227.914,382.596z"/>
			<path fill="none" stroke="#000000" stroke-miterlimit="10" d="M371.125,389.902l0.755,43.938l-14.279,0.245l0.682,39.666
				l-49.554,0.852l-1.82-105.939c-0.352-20.505,4.968-36.529,15.962-48.072c10.992-11.543,26.619-17.488,46.88-17.836
				c19.528-0.336,34.06,4.563,43.595,14.695c9.532,10.133,14.485,25.938,14.854,47.419l1.85,107.649l-49.554,0.852l-1.793-104.354
				c-0.111-6.51-0.964-11.012-2.551-13.508c-1.59-2.494-4.38-3.71-8.365-3.642c-7.731,0.134-11.495,5.978-11.297,17.53l0.356,20.749
				L371.125,389.902z"/>
			<path fill="none" stroke="#000000" stroke-miterlimit="10" d="M456.656,472.063l-2.063-120.099
				c-0.256-14.89,4.052-27.131,12.921-36.726c8.87-9.594,20.506-14.515,34.909-14.762c17.086-0.294,30.361,7.333,39.826,22.878
				c5.471-8.558,11.387-14.703,17.754-18.435c6.363-3.73,14.266-5.678,23.707-5.84c14.969-0.258,26.523,4.265,34.66,13.565
				c8.137,9.304,12.357,22.822,12.662,40.56l1.99,115.826l-49.553,0.852l-1.863-108.381c-0.092-5.371-0.58-8.922-1.465-10.658
				c-0.885-1.733-2.629-2.579-5.232-2.534c-4.881,0.084-7.252,4.276-7.109,12.575l1.877,109.235l-49.553,0.851l-1.861-108.381
				c-0.092-5.288-0.6-8.819-1.525-10.595c-0.928-1.773-2.691-2.64-5.295-2.595c-4.883,0.084-7.246,4.562-7.094,13.43l1.861,108.381
				L456.656,472.063z"/>
			<path fill="none" stroke="#000000" stroke-miterlimit="10" d="M750.15,365.198l0.639,37.104l-32.344,0.556
				c-4.395,0.076-7.494,0.781-9.303,2.113c-1.809,1.334-2.688,3.547-2.633,6.638c0.059,3.5,1.033,5.782,2.926,6.849
				c1.889,1.066,5.723,1.549,11.5,1.45l33.32-0.573l0.818,47.6l-38.936,0.67c-18.309,0.314-32.379-3.818-42.211-12.4
				c-9.834-8.578-14.893-21.127-15.176-37.646l-1.121-65.297c-0.275-15.947,4.092-28.395,13.092-37.34
				c9.004-8.944,21.805-13.559,38.404-13.844l43.084-0.741l0.822,47.844l-31.611,0.544c-8.543,0.146-12.768,2.986-12.674,8.52
				c0.057,3.255,1.111,5.495,3.168,6.721c2.055,1.229,5.688,1.795,10.895,1.705L750.15,365.198z"/>
			<path fill="none" stroke="#000000" stroke-miterlimit="10" d="M858.871,297.77l0.816,47.479c-3.602-1.159-6.379-1.723-8.33-1.688
				c-3.744,0.063-6.934,1.504-9.572,4.315c-2.637,2.813-3.922,6.172-3.855,10.077c0.059,3.337,1.596,7.542,4.613,12.618l3.896,6.525
				c7.039,11.764,10.654,23.178,10.844,34.242c0.277,16.192-5.244,30.002-16.564,41.428s-25.281,17.282-41.879,17.567
				c-7.977,0.137-15.898-1.558-23.771-5.085l-0.83-48.211c4.77,2.932,8.988,4.363,12.65,4.301c4.311-0.074,7.891-1.376,10.736-3.908
				c2.846-2.531,4.236-5.668,4.172-9.412c-0.041-2.44-2.451-7.729-7.23-15.869c-7.629-12.89-11.555-25.846-11.777-38.865
				c-0.271-15.702,5.09-29.326,16.084-40.87c10.992-11.542,24.26-17.448,39.801-17.715
				C845.51,294.581,852.242,295.606,858.871,297.77z"/>
		</g>
	</g>
	<g>
	</g>
	<g>
	</g>
	<g>
	</g>
	<g>
	</g>
	<g>
	</g>
	<g>
	</g>
	<g>
	</g>
	<g>
	</g>
	<g>
	</g>
	<g>
	</g>
	<g>
	</g>
	<g>
	</g>
	<g>
	</g>
	<g>
	</g>
	<g>
	</g>
</g>
</svg>
