<?xml version="1.0" encoding="utf-8"?>
<!-- Generator: Adobe Illustrator 16.0.3, SVG Export Plug-In . SVG Version: 6.00 Build 0)  -->
<!DOCTYPE svg PUBLIC "-//W3C//DTD SVG 1.1//EN" "http://www.w3.org/Graphics/SVG/1.1/DTD/svg11.dtd">
<svg version="1.1" xmlns="http://www.w3.org/2000/svg" xmlns:xlink="http://www.w3.org/1999/xlink" x="0px" y="0px" width="960px"
	 height="560px" viewBox="0 0 960 560" enable-background="new 0 0 960 560" xml:space="preserve">
<g id="Capa_2">
	
		<radialGradient id="SVGID_1_" cx="712.8545" cy="269.5645" r="253.7077" gradientTransform="matrix(0.9968 -0.0803 0.0803 0.9968 -18.1655 51.8407)" gradientUnits="userSpaceOnUse">
		<stop  offset="0" style="stop-color:#CCCCCC"/>
		<stop  offset="0.3497" style="stop-color:#CECECE"/>
		<stop  offset="0.5035" style="stop-color:#D5D5D5"/>
		<stop  offset="0.6187" style="stop-color:#E2E2E2"/>
		<stop  offset="0.6452" style="stop-color:#E6E6E6"/>
		<stop  offset="0.8011" style="stop-color:#E6E6E6"/>
		<stop  offset="0.8011" style="stop-color:#E6E6E6"/>
		<stop  offset="1" style="stop-color:#E6E6E6"/>
	</radialGradient>
	<polygon fill="url(#SVGID_1_)" stroke="#000000" stroke-miterlimit="10" points="660.216,11.955 768.695,174.172 955.971,120.917 
		837.034,273.99 945.76,439.241 761.02,372.471 638.989,525.028 646.028,328.312 460.407,260.083 652.232,206.458 	"/>
	<polygon fill="#FFFFFF" stroke="#FFFFFF" stroke-miterlimit="10" points="669.863,45.621 764.4,186.991 927.613,140.579 
		823.96,273.98 918.713,417.995 757.714,359.804 651.362,492.76 657.5,321.321 495.735,261.863 662.905,215.128 	"/>
	
		<radialGradient id="SVGID_2_" cx="747.582" cy="249.2256" r="162.4377" gradientTransform="matrix(0.8418 0.5398 -0.5398 0.8418 232.0817 -351.4469)" gradientUnits="userSpaceOnUse">
		<stop  offset="0" style="stop-color:#CCCCCC"/>
		<stop  offset="0.3497" style="stop-color:#CECECE"/>
		<stop  offset="0.5035" style="stop-color:#D5D5D5"/>
		<stop  offset="0.6187" style="stop-color:#E2E2E2"/>
		<stop  offset="0.6452" style="stop-color:#E6E6E6"/>
		<stop  offset="0.8011" style="stop-color:#E6E6E6"/>
		<stop  offset="0.8011" style="stop-color:#E6E6E6"/>
		<stop  offset="1" style="stop-color:#E6E6E6"/>
	</radialGradient>
	<polygon fill="url(#SVGID_2_)" stroke="#000000" stroke-miterlimit="10" points="796.897,112.969 789.258,237.677 905.32,283.164 
		785.369,315.027 776.682,441.377 708.459,335.722 587.13,366.126 666.998,268.637 598.889,161.901 717.409,208.965 	"/>
	
		<radialGradient id="SVGID_3_" cx="719.8906" cy="272.1162" r="162.4338" gradientTransform="matrix(0.9968 -0.0803 0.0803 0.9968 -18.1655 51.8407)" gradientUnits="userSpaceOnUse">
		<stop  offset="0" style="stop-color:#CCCCCC"/>
		<stop  offset="0.3497" style="stop-color:#CECECE"/>
		<stop  offset="0.5035" style="stop-color:#D5D5D5"/>
		<stop  offset="0.6187" style="stop-color:#E2E2E2"/>
		<stop  offset="0.6452" style="stop-color:#E6E6E6"/>
		<stop  offset="0.8011" style="stop-color:#E6E6E6"/>
		<stop  offset="0.8011" style="stop-color:#E6E6E6"/>
		<stop  offset="1" style="stop-color:#E6E6E6"/>
	</radialGradient>
	<polygon fill="url(#SVGID_3_)" stroke="#FCFFF3" stroke-miterlimit="10" points="686.804,104.358 756.256,208.218 876.157,174.119 
		800.012,272.123 869.618,377.923 751.341,335.172 673.212,432.848 677.72,306.902 558.878,263.22 681.693,228.886 	"/>
</g>
<g id="Capa_1">
	<g>
		<g>
			<radialGradient id="SVGID_4_" cx="320.0352" cy="274.9868" r="227.647" gradientUnits="userSpaceOnUse">
				<stop  offset="0" style="stop-color:#FFF400"/>
				<stop  offset="0.1045" style="stop-color:#FDDE0F"/>
				<stop  offset="0.2211" style="stop-color:#FCCD1A"/>
				<stop  offset="0.3495" style="stop-color:#FBC321"/>
				<stop  offset="0.5108" style="stop-color:#FBC023"/>
				<stop  offset="0.8015" style="stop-color:#FBC223"/>
				<stop  offset="0.906" style="stop-color:#FCC922"/>
				<stop  offset="0.9805" style="stop-color:#FDD421"/>
				<stop  offset="1" style="stop-color:#FED921"/>
				<stop  offset="1" style="stop-color:#FFF805"/>
			</radialGradient>
			<path fill="url(#SVGID_4_)" d="M43.584,258.076l0.999,8.313c-2.653,0.737-4.525,2.17-5.616,4.299
				c-1.092,2.129-1.417,5.026-0.977,8.689l6.817,56.742l0.355,2.954c0.126,1.054,0.477,2.138,1.053,3.254
				c0.575,1.115,1.256,2.044,2.042,2.786c0.842,0.829,1.7,1.388,2.571,1.676c0.871,0.291,2.024,0.42,3.461,0.386l1.007,8.382
				c-8.886,1.067-16.88-0.317-23.984-4.157c-6.26-3.382-11.271-8.344-15.029-14.885c-3.76-6.539-6.206-14.526-7.339-23.962
				c-0.831-6.914-0.655-13.475,0.527-19.68c1.182-6.205,3.319-11.723,6.409-16.555c3.129-4.882,7.085-8.98,11.867-12.296
				s9.532-5.256,14.249-5.823L43.584,258.076z M50.018,265.806l-0.999-8.313c2.288,0.098,4.155,0.268,5.602,0.512
				c1.446,0.245,4.081,0.812,7.905,1.699c2.435,0.543,4.041,0.769,4.819,0.675c1.328-0.159,2.265-0.875,2.809-2.149l0.695-1.756
				c0.417-1.166,1.381-1.839,2.893-2.021c1.236-0.148,2.23,0.105,2.982,0.757c0.751,0.654,1.213,1.69,1.384,3.11l3.433,28.577
				c0.22,1.832-0.033,3.21-0.757,4.133c-0.726,0.923-1.615,1.448-2.668,1.575c-1.1,0.132-2.024-0.117-2.773-0.747
				s-1.426-1.722-2.031-3.276c-1.396-3.501-2.677-6.229-3.84-8.179c-2.492-4.114-5.16-7.371-8.003-9.771
				c-1.915-1.628-3.779-2.832-5.591-3.613C54.064,266.237,52.111,265.834,50.018,265.806z M60.928,354.88l-1.007-8.382
				c3.54-0.703,7.132-2.505,10.779-5.406c1.946-1.58,3.612-3.58,4.994-6.001c1.382-2.418,2.326-5.005,2.831-7.761
				c0.281-1.521,0.695-2.627,1.239-3.32c0.544-0.692,1.319-1.1,2.327-1.221c1.099-0.132,2.064,0.171,2.897,0.907
				c0.831,0.736,1.322,1.723,1.47,2.959c0.248,2.062-0.243,4.652-1.47,7.773c-1.228,3.121-2.93,6.065-5.106,8.835
				c-2.66,3.386-5.493,6.004-8.5,7.852C68.375,352.962,64.89,354.218,60.928,354.88z"/>
			<radialGradient id="SVGID_5_" cx="320.0352" cy="274.9868" r="227.647" gradientUnits="userSpaceOnUse">
				<stop  offset="0" style="stop-color:#FFF400"/>
				<stop  offset="0.1045" style="stop-color:#FDDE0F"/>
				<stop  offset="0.2211" style="stop-color:#FCCD1A"/>
				<stop  offset="0.3495" style="stop-color:#FBC321"/>
				<stop  offset="0.5108" style="stop-color:#FBC023"/>
				<stop  offset="0.8015" style="stop-color:#FBC223"/>
				<stop  offset="0.906" style="stop-color:#FCC922"/>
				<stop  offset="0.9805" style="stop-color:#FDD421"/>
				<stop  offset="1" style="stop-color:#FED921"/>
				<stop  offset="1" style="stop-color:#FFF805"/>
			</radialGradient>
			<path fill="url(#SVGID_5_)" d="M125.761,250.086l9.697,80.717c0.215,1.787,0.712,3.028,1.493,3.724
				c0.421,0.415,0.799,0.66,1.134,0.735c0.333,0.076,1.422,0.236,3.263,0.479c2.26,0.241,3.51,1.367,3.752,3.383
				c0.143,1.191-0.337,2.225-1.439,3.1c-0.805,0.654-2.214,1.102-4.229,1.344l-2.335,0.281l-30.639,3.681l-1.786,0.214
				c-1.649,0.198-2.957,0.043-3.924-0.469c-0.968-0.511-1.52-1.339-1.657-2.483c-0.226-1.878,0.541-3.224,2.302-4.04
				c1.451-0.685,2.295-1.1,2.533-1.245c0.237-0.144,0.47-0.438,0.695-0.884c0.461-0.799,0.596-2,0.403-3.604l-8.261-68.764
				c-0.192-1.602-0.607-2.737-1.245-3.404c-0.324-0.379-0.621-0.611-0.885-0.696c-0.266-0.083-1.184-0.287-2.756-0.61
				c-1.904-0.374-2.968-1.5-3.193-3.378c-0.138-1.145,0.203-2.081,1.021-2.806c0.819-0.726,2.052-1.188,3.701-1.386l1.786-0.214
				L125.761,250.086z M152.595,295.365c4.291,0.135,7.616,0.456,9.976,0.962c2.361,0.506,4.537,1.313,6.528,2.421
				c2.094,1.188,3.775,2.706,5.042,4.551c1.267,1.846,2.032,3.868,2.297,6.065l1.708,14.221c0.176,1.466,0.745,2.14,1.707,2.024
				c0.366-0.044,0.663-0.184,0.89-0.42c0.226-0.236,0.534-0.68,0.92-1.33c0.957-1.694,2.032-2.613,3.223-2.756
				c0.778-0.094,1.606,0.225,2.484,0.955c0.877,0.73,1.366,1.508,1.465,2.332c0.17,1.42-0.298,3.23-1.403,5.431
				c-1.106,2.2-2.571,4.223-4.394,6.067c-1.697,1.737-3.604,3.069-5.722,3.998c-2.119,0.928-4.667,1.571-7.643,1.929
				c-6.045,0.727-10.971-0.437-14.774-3.486c-3.806-3.051-6.078-7.668-6.821-13.851l-1.387-11.541
				c-0.308-2.564-0.511-4.05-0.605-4.456c-0.45-1.804-1.281-3.308-2.494-4.509c-1.521-1.443-3.534-2.153-6.04-2.132l-0.883-7.351
				c2.429-0.662,4.115-1.516,5.059-2.56c0.817-0.934,1.334-1.947,1.551-3.043c0.217-1.094,0.202-2.673-0.046-4.733l-2.187-18.205
				c-0.346-2.884-1.167-4.97-2.459-6.255c-1.293-1.284-3.455-2.163-6.484-2.635l-0.916-7.626l1.787-0.215
				c5.083-0.611,9.433-0.947,13.049-1.01c5.373-0.134,10.322,1.037,14.848,3.512c6.511,3.538,10.24,9.247,11.187,17.123
				c0.776,6.458-0.605,11.989-4.139,16.596c-1.485,1.944-3.295,3.602-5.431,4.973C160.354,291.785,157.056,293.436,152.595,295.365z
				"/>
			<radialGradient id="SVGID_6_" cx="320.0352" cy="274.9868" r="227.647" gradientUnits="userSpaceOnUse">
				<stop  offset="0" style="stop-color:#FFF400"/>
				<stop  offset="0.1045" style="stop-color:#FDDE0F"/>
				<stop  offset="0.2211" style="stop-color:#FCCD1A"/>
				<stop  offset="0.3495" style="stop-color:#FBC321"/>
				<stop  offset="0.5108" style="stop-color:#FBC023"/>
				<stop  offset="0.8015" style="stop-color:#FBC223"/>
				<stop  offset="0.906" style="stop-color:#FCC922"/>
				<stop  offset="0.9805" style="stop-color:#FDD421"/>
				<stop  offset="1" style="stop-color:#FED921"/>
				<stop  offset="1" style="stop-color:#FFF805"/>
			</radialGradient>
			<path fill="url(#SVGID_6_)" d="M235.469,332.029l-30.639,3.681l-1.786,0.214c-1.649,0.198-2.957,0.043-3.924-0.469
				c-0.967-0.511-1.52-1.339-1.657-2.483c-0.226-1.878,0.541-3.224,2.302-4.04c1.451-0.685,2.295-1.1,2.533-1.245
				c0.238-0.144,0.47-0.438,0.696-0.884c0.461-0.799,0.596-2,0.403-3.604l-8.261-68.763c-0.192-1.603-0.607-2.738-1.245-3.404
				c-0.324-0.379-0.62-0.611-0.885-0.696c-0.266-0.083-1.184-0.287-2.756-0.61c-1.903-0.374-2.967-1.5-3.193-3.379
				c-0.138-1.145,0.203-2.081,1.021-2.805c0.819-0.726,2.052-1.188,3.701-1.386l1.786-0.214l30.639-3.681l1.786-0.214
				c1.649-0.198,2.957-0.042,3.924,0.47c0.967,0.51,1.52,1.339,1.657,2.483c0.226,1.879-0.542,3.225-2.302,4.039
				c-1.45,0.687-2.295,1.102-2.533,1.246c-0.239,0.146-0.47,0.441-0.696,0.886c-0.461,0.798-0.595,2-0.403,3.602l8.261,68.764
				c0.193,1.604,0.607,2.739,1.245,3.406c0.324,0.379,0.619,0.61,0.885,0.693c0.265,0.085,1.184,0.289,2.756,0.61
				c1.903,0.376,2.968,1.502,3.193,3.38c0.137,1.145-0.203,2.08-1.022,2.806c-0.818,0.726-2.052,1.187-3.701,1.385L235.469,332.029z
				"/>
			<radialGradient id="SVGID_7_" cx="320.0352" cy="274.9868" r="227.647" gradientUnits="userSpaceOnUse">
				<stop  offset="0" style="stop-color:#FFF400"/>
				<stop  offset="0.1045" style="stop-color:#FDDE0F"/>
				<stop  offset="0.2211" style="stop-color:#FCCD1A"/>
				<stop  offset="0.3495" style="stop-color:#FBC321"/>
				<stop  offset="0.5108" style="stop-color:#FBC023"/>
				<stop  offset="0.8015" style="stop-color:#FBC223"/>
				<stop  offset="0.906" style="stop-color:#FCC922"/>
				<stop  offset="0.9805" style="stop-color:#FDD421"/>
				<stop  offset="1" style="stop-color:#FED921"/>
				<stop  offset="1" style="stop-color:#FFF805"/>
			</radialGradient>
			<path fill="url(#SVGID_7_)" d="M239.592,236.411l18.067-2.17l0.999,8.313c-2.004,1.495-3.486,3.276-4.445,5.343
				c-1.595,3.352-2.48,7.197-2.656,11.538l-0.184,4.273c-0.069,1.356-0.436,2.457-1.101,3.302c-0.665,0.848-1.571,1.339-2.715,1.477
				c-1.191,0.143-2.213-0.152-3.068-0.886c-0.854-0.733-1.361-1.763-1.521-3.092L239.592,236.411z M293.725,229.907l9.697,80.717
				c0.215,1.787,0.712,3.028,1.493,3.724c0.42,0.415,0.798,0.66,1.133,0.736c0.334,0.075,1.422,0.235,3.263,0.478
				c2.259,0.241,3.509,1.367,3.751,3.383c0.143,1.191-0.337,2.225-1.439,3.1c-0.805,0.654-2.237,1.104-4.298,1.353l-2.267,0.272
				l-30.639,3.681l-2.268,0.272c-2.016,0.242-3.575,0.116-4.679-0.378c-1.105-0.495-1.732-1.36-1.88-2.597
				c-0.242-2.016,0.706-3.405,2.844-4.176c1.731-0.671,2.75-1.084,3.057-1.237c0.307-0.152,0.593-0.477,0.859-0.975
				c0.593-0.86,0.783-2.185,0.568-3.972l-9.697-80.716L293.725,229.907z M317.494,227.052l3.375,28.097
				c0.16,1.329-0.089,2.45-0.746,3.365c-0.657,0.915-1.58,1.444-2.771,1.587c-1.145,0.138-2.14-0.125-2.987-0.792
				c-0.847-0.664-1.464-1.646-1.853-2.947l-1.19-4.108c-1.199-4.176-2.97-7.702-5.313-10.581c-1.467-1.775-3.329-3.154-5.584-4.138
				l-0.999-8.313L317.494,227.052z"/>
			<radialGradient id="SVGID_8_" cx="320.0352" cy="274.9868" r="227.647" gradientUnits="userSpaceOnUse">
				<stop  offset="0" style="stop-color:#FFF400"/>
				<stop  offset="0.1045" style="stop-color:#FDDE0F"/>
				<stop  offset="0.2211" style="stop-color:#FCCD1A"/>
				<stop  offset="0.3495" style="stop-color:#FBC321"/>
				<stop  offset="0.5108" style="stop-color:#FBC023"/>
				<stop  offset="0.8015" style="stop-color:#FBC223"/>
				<stop  offset="0.906" style="stop-color:#FCC922"/>
				<stop  offset="0.9805" style="stop-color:#FDD421"/>
				<stop  offset="1" style="stop-color:#FED921"/>
				<stop  offset="1" style="stop-color:#FFF805"/>
			</radialGradient>
			<path fill="url(#SVGID_8_)" d="M374.786,315.292l-30.639,3.681l-1.786,0.215c-1.648,0.197-2.957,0.042-3.924-0.469
				c-0.967-0.512-1.52-1.34-1.657-2.484c-0.226-1.878,0.541-3.224,2.302-4.04c1.451-0.685,2.295-1.1,2.533-1.245
				c0.237-0.144,0.47-0.438,0.695-0.884c0.462-0.799,0.596-1.999,0.403-3.604l-8.261-68.763c-0.192-1.603-0.607-2.737-1.245-3.404
				c-0.324-0.379-0.62-0.611-0.885-0.696c-0.266-0.083-1.184-0.287-2.756-0.61c-1.903-0.374-2.968-1.5-3.193-3.379
				c-0.138-1.145,0.203-2.081,1.022-2.806c0.818-0.725,2.052-1.188,3.701-1.386l1.786-0.214l30.639-3.681l1.786-0.214
				c1.648-0.198,2.957-0.041,3.923,0.47c0.967,0.51,1.52,1.339,1.658,2.483c0.226,1.879-0.542,3.226-2.302,4.039
				c-1.451,0.687-2.296,1.102-2.533,1.246c-0.238,0.146-0.47,0.441-0.695,0.886c-0.461,0.798-0.596,1.999-0.403,3.602l8.261,68.764
				c0.193,1.604,0.608,2.739,1.246,3.406c0.324,0.379,0.619,0.611,0.885,0.694c0.265,0.085,1.184,0.288,2.756,0.609
				c1.903,0.376,2.968,1.502,3.194,3.38c0.137,1.145-0.204,2.08-1.022,2.806s-2.052,1.187-3.701,1.385L374.786,315.292z"/>
			<radialGradient id="SVGID_9_" cx="320.0352" cy="274.9868" r="227.647" gradientUnits="userSpaceOnUse">
				<stop  offset="0" style="stop-color:#FFF400"/>
				<stop  offset="0.1045" style="stop-color:#FDDE0F"/>
				<stop  offset="0.2211" style="stop-color:#FCCD1A"/>
				<stop  offset="0.3495" style="stop-color:#FBC321"/>
				<stop  offset="0.5108" style="stop-color:#FBC023"/>
				<stop  offset="0.8015" style="stop-color:#FBC223"/>
				<stop  offset="0.906" style="stop-color:#FCC922"/>
				<stop  offset="0.9805" style="stop-color:#FDD421"/>
				<stop  offset="1" style="stop-color:#FED921"/>
				<stop  offset="1" style="stop-color:#FFF805"/>
			</radialGradient>
			<path fill="url(#SVGID_9_)" d="M419.285,212.94l0.999,8.313c-2.653,0.737-4.524,2.17-5.616,4.299
				c-1.092,2.129-1.417,5.026-0.977,8.689l6.817,56.742l0.355,2.954c0.126,1.054,0.477,2.138,1.053,3.254
				c0.575,1.115,1.255,2.044,2.042,2.785c0.842,0.829,1.7,1.389,2.571,1.677c0.872,0.291,2.024,0.42,3.461,0.386l1.007,8.382
				c-8.886,1.067-16.88-0.317-23.984-4.157c-6.26-3.382-11.271-8.344-15.028-14.885c-3.76-6.54-6.206-14.526-7.339-23.962
				c-0.831-6.915-0.655-13.475,0.527-19.68c1.182-6.205,3.319-11.723,6.409-16.555c3.129-4.881,7.085-8.98,11.868-12.296
				c4.781-3.315,9.531-5.256,14.249-5.823L419.285,212.94z M425.718,220.67l-0.999-8.313c2.288,0.098,4.155,0.268,5.602,0.512
				c1.446,0.245,4.081,0.812,7.905,1.698c2.435,0.544,4.041,0.769,4.82,0.675c1.328-0.16,2.264-0.875,2.808-2.149l0.695-1.755
				c0.418-1.166,1.382-1.839,2.894-2.021c1.236-0.148,2.23,0.105,2.982,0.757c0.752,0.653,1.214,1.69,1.385,3.11l3.433,28.577
				c0.22,1.832-0.033,3.209-0.758,4.133c-0.726,0.923-1.615,1.448-2.668,1.575c-1.099,0.132-2.024-0.117-2.772-0.747
				c-0.75-0.63-1.427-1.722-2.031-3.276c-1.396-3.502-2.677-6.229-3.84-8.179c-2.492-4.114-5.16-7.371-8.002-9.771
				c-1.915-1.628-3.779-2.832-5.591-3.614C429.765,221.102,427.813,220.698,425.718,220.67z M436.628,309.744l-1.007-8.382
				c3.54-0.703,7.132-2.505,10.779-5.406c1.946-1.58,3.612-3.58,4.994-6.001c1.381-2.418,2.325-5.005,2.831-7.761
				c0.281-1.521,0.695-2.627,1.239-3.32c0.543-0.692,1.319-1.1,2.327-1.221c1.099-0.132,2.065,0.171,2.897,0.907
				c0.831,0.736,1.322,1.723,1.471,2.959c0.248,2.062-0.243,4.652-1.471,7.772c-1.228,3.122-2.929,6.066-5.106,8.836
				c-2.659,3.386-5.493,6.004-8.499,7.851C444.075,307.826,440.591,309.082,436.628,309.744z"/>
			<radialGradient id="SVGID_10_" cx="320.0352" cy="274.9868" r="227.647" gradientUnits="userSpaceOnUse">
				<stop  offset="0" style="stop-color:#FFF400"/>
				<stop  offset="0.1045" style="stop-color:#FDDE0F"/>
				<stop  offset="0.2211" style="stop-color:#FCCD1A"/>
				<stop  offset="0.3495" style="stop-color:#FBC321"/>
				<stop  offset="0.5108" style="stop-color:#FBC023"/>
				<stop  offset="0.8015" style="stop-color:#FBC223"/>
				<stop  offset="0.906" style="stop-color:#FCC922"/>
				<stop  offset="0.9805" style="stop-color:#FDD421"/>
				<stop  offset="1" style="stop-color:#FED921"/>
				<stop  offset="1" style="stop-color:#FFF805"/>
			</radialGradient>
			<path fill="url(#SVGID_10_)" d="M488.858,224.165l5.211,13.8l-6.827,45.838c-0.213,1.326-0.252,2.539-0.12,3.639
				c0.347,2.885,1.944,4.783,4.796,5.694l2.536,0.811c1.594,0.505,2.487,1.56,2.68,3.163c0.275,2.291-1.26,3.635-4.603,4.037
				l-17.449,2.096c-1.695,0.204-3.077,0.011-4.146-0.582c-1.071-0.591-1.679-1.505-1.828-2.741c-0.16-1.329,0.715-2.548,2.626-3.661
				c1.778-1.05,3.075-1.96,3.888-2.732c0.813-0.771,1.563-1.777,2.25-3.022c1.056-2.032,1.811-4.652,2.261-7.867L488.858,224.165z
				 M491.502,206.146l27.684-3.326l28.795,78.422c0.537,1.377,1.101,2.587,1.691,3.631c0.517,0.82,1.518,1.421,3.004,1.8
				c1.25,0.36,2.136,0.766,2.654,1.214c0.518,0.449,0.83,1.108,0.935,1.979c0.286,2.381-1.357,3.786-4.93,4.215l-34.279,4.118
				c-1.374,0.165-2.513-0.033-3.417-0.599c-0.904-0.563-1.422-1.397-1.555-2.497c-0.109-0.915-0.01-1.624,0.302-2.127
				c0.312-0.5,1.067-1.173,2.268-2.015c0.86-0.566,1.44-1.148,1.742-1.742c0.3-0.593,0.401-1.303,0.302-2.127
				c-0.094-0.778-0.245-1.456-0.453-2.037l-3.396-9.695l-19.167,2.303l0.873-8.397l15.389-1.85l-19.351-54.331L491.502,206.146z"/>
			<radialGradient id="SVGID_11_" cx="320.0352" cy="274.9868" r="227.647" gradientUnits="userSpaceOnUse">
				<stop  offset="0" style="stop-color:#FFF400"/>
				<stop  offset="0.1045" style="stop-color:#FDDE0F"/>
				<stop  offset="0.2211" style="stop-color:#FCCD1A"/>
				<stop  offset="0.3495" style="stop-color:#FBC321"/>
				<stop  offset="0.5108" style="stop-color:#FBC023"/>
				<stop  offset="0.8015" style="stop-color:#FBC223"/>
				<stop  offset="0.906" style="stop-color:#FCC922"/>
				<stop  offset="0.9805" style="stop-color:#FDD421"/>
				<stop  offset="1" style="stop-color:#FED921"/>
				<stop  offset="1" style="stop-color:#FFF805"/>
			</radialGradient>
			<path fill="url(#SVGID_11_)" d="M599.835,288.255l-30.57,3.673l-1.786,0.214c-1.648,0.198-2.956,0.042-3.924-0.469
				c-0.967-0.511-1.52-1.339-1.657-2.483c-0.226-1.878,0.542-3.225,2.303-4.04c1.45-0.685,2.294-1.1,2.533-1.245
				c0.237-0.144,0.47-0.439,0.695-0.885c0.461-0.798,0.596-1.999,0.403-3.604l-8.262-68.764c-0.192-1.603-0.607-2.737-1.245-3.404
				c-0.324-0.379-0.62-0.611-0.885-0.696c-0.267-0.083-1.185-0.287-2.756-0.61c-1.904-0.374-2.968-1.5-3.194-3.379
				c-0.137-1.145,0.203-2.081,1.022-2.805c0.818-0.726,2.052-1.188,3.7-1.386l1.787-0.215l30.639-3.681l2.335-0.281
				c2.015-0.242,3.49-0.14,4.428,0.305c1.278,0.589,1.989,1.48,2.132,2.669c0.242,2.017-0.705,3.407-2.843,4.175
				c-1.737,0.626-2.758,1.029-3.062,1.204c-0.305,0.176-0.615,0.492-0.932,0.948c-0.588,0.907-0.776,2.231-0.567,3.971
				L599.835,288.255z M605.399,287.586l-0.924-7.693c2.193-0.682,3.914-1.353,5.158-2.014c1.245-0.659,2.404-1.544,3.479-2.647
				c1.742-1.743,3.255-4.038,4.539-6.888c1.283-2.848,2.233-5.958,2.852-9.332c0.429-2.607,0.906-4.348,1.428-5.224
				c0.522-0.875,1.377-1.385,2.569-1.528c1.282-0.154,2.284,0.261,3.006,1.242c0.335,0.472,0.594,1.461,0.775,2.973l3.359,27.959
				L605.399,287.586z"/>
		</g>
		<g>
			<path fill="none" stroke="#000000" stroke-miterlimit="10" d="M43.584,258.076l0.999,8.313c-2.653,0.737-4.525,2.17-5.616,4.299
				c-1.092,2.129-1.417,5.026-0.977,8.689l6.817,56.742l0.355,2.954c0.126,1.054,0.477,2.138,1.053,3.254
				c0.575,1.115,1.256,2.044,2.042,2.786c0.842,0.829,1.7,1.388,2.571,1.676c0.871,0.291,2.024,0.42,3.461,0.386l1.007,8.382
				c-8.886,1.067-16.88-0.317-23.984-4.157c-6.26-3.382-11.271-8.344-15.029-14.885c-3.76-6.539-6.206-14.526-7.339-23.962
				c-0.831-6.914-0.655-13.475,0.527-19.68c1.182-6.205,3.319-11.723,6.409-16.555c3.129-4.882,7.085-8.98,11.867-12.296
				s9.532-5.256,14.249-5.823L43.584,258.076z M50.018,265.806l-0.999-8.313c2.288,0.098,4.155,0.268,5.602,0.512
				c1.446,0.245,4.081,0.812,7.905,1.699c2.435,0.543,4.041,0.769,4.819,0.675c1.328-0.159,2.265-0.875,2.809-2.149l0.695-1.756
				c0.417-1.166,1.381-1.839,2.893-2.021c1.236-0.148,2.23,0.105,2.982,0.757c0.751,0.654,1.213,1.69,1.384,3.11l3.433,28.577
				c0.22,1.832-0.033,3.21-0.757,4.133c-0.726,0.923-1.615,1.448-2.668,1.575c-1.1,0.132-2.024-0.117-2.773-0.747
				s-1.426-1.722-2.031-3.276c-1.396-3.501-2.677-6.229-3.84-8.179c-2.492-4.114-5.16-7.371-8.003-9.771
				c-1.915-1.628-3.779-2.832-5.591-3.613C54.064,266.237,52.111,265.834,50.018,265.806z M60.928,354.88l-1.007-8.382
				c3.54-0.703,7.132-2.505,10.779-5.406c1.946-1.58,3.612-3.58,4.994-6.001c1.382-2.418,2.326-5.005,2.831-7.761
				c0.281-1.521,0.695-2.627,1.239-3.32c0.544-0.692,1.319-1.1,2.327-1.221c1.099-0.132,2.064,0.171,2.897,0.907
				c0.831,0.736,1.322,1.723,1.47,2.959c0.248,2.062-0.243,4.652-1.47,7.773c-1.228,3.121-2.93,6.065-5.106,8.835
				c-2.66,3.386-5.493,6.004-8.5,7.852C68.375,352.962,64.89,354.218,60.928,354.88z"/>
			<path fill="none" stroke="#000000" stroke-miterlimit="10" d="M125.761,250.086l9.697,80.717
				c0.215,1.787,0.712,3.028,1.493,3.724c0.421,0.415,0.799,0.66,1.134,0.735c0.333,0.076,1.422,0.236,3.263,0.479
				c2.26,0.241,3.51,1.367,3.752,3.383c0.143,1.191-0.337,2.225-1.439,3.1c-0.805,0.654-2.214,1.102-4.229,1.344l-2.335,0.281
				l-30.639,3.681l-1.786,0.214c-1.649,0.198-2.957,0.043-3.924-0.469c-0.968-0.511-1.52-1.339-1.657-2.483
				c-0.226-1.878,0.541-3.224,2.302-4.04c1.451-0.685,2.295-1.1,2.533-1.245c0.237-0.144,0.47-0.438,0.695-0.884
				c0.461-0.799,0.596-2,0.403-3.604l-8.261-68.764c-0.192-1.602-0.607-2.737-1.245-3.404c-0.324-0.379-0.621-0.611-0.885-0.696
				c-0.266-0.083-1.184-0.287-2.756-0.61c-1.904-0.374-2.968-1.5-3.193-3.378c-0.138-1.145,0.203-2.081,1.021-2.806
				c0.819-0.726,2.052-1.188,3.701-1.386l1.786-0.214L125.761,250.086z M152.595,295.365c4.291,0.135,7.616,0.456,9.976,0.962
				c2.361,0.506,4.537,1.313,6.528,2.421c2.094,1.188,3.775,2.706,5.042,4.551c1.267,1.846,2.032,3.868,2.297,6.065l1.708,14.221
				c0.176,1.466,0.745,2.14,1.707,2.024c0.366-0.044,0.663-0.184,0.89-0.42c0.226-0.236,0.534-0.68,0.92-1.33
				c0.957-1.694,2.032-2.613,3.223-2.756c0.778-0.094,1.606,0.225,2.484,0.955c0.877,0.73,1.366,1.508,1.465,2.332
				c0.17,1.42-0.298,3.23-1.403,5.431c-1.106,2.2-2.571,4.223-4.394,6.067c-1.697,1.737-3.604,3.069-5.722,3.998
				c-2.119,0.928-4.667,1.571-7.643,1.929c-6.045,0.727-10.971-0.437-14.774-3.486c-3.806-3.051-6.078-7.668-6.821-13.851
				l-1.387-11.541c-0.308-2.564-0.511-4.05-0.605-4.456c-0.45-1.804-1.281-3.308-2.494-4.509c-1.521-1.443-3.534-2.153-6.04-2.132
				l-0.883-7.351c2.429-0.662,4.115-1.516,5.059-2.56c0.817-0.934,1.334-1.947,1.551-3.043c0.217-1.094,0.202-2.673-0.046-4.733
				l-2.187-18.205c-0.346-2.884-1.167-4.97-2.459-6.255c-1.293-1.284-3.455-2.163-6.484-2.635l-0.916-7.626l1.787-0.215
				c5.083-0.611,9.433-0.947,13.049-1.01c5.373-0.134,10.322,1.037,14.848,3.512c6.511,3.538,10.24,9.247,11.187,17.123
				c0.776,6.458-0.605,11.989-4.139,16.596c-1.485,1.944-3.295,3.602-5.431,4.973C160.354,291.785,157.056,293.436,152.595,295.365z
				"/>
			<path fill="none" stroke="#000000" stroke-miterlimit="10" d="M235.469,332.029l-30.639,3.681l-1.786,0.214
				c-1.649,0.198-2.957,0.043-3.924-0.469c-0.967-0.511-1.52-1.339-1.657-2.483c-0.226-1.878,0.541-3.224,2.302-4.04
				c1.451-0.685,2.295-1.1,2.533-1.245c0.238-0.144,0.47-0.438,0.696-0.884c0.461-0.799,0.596-2,0.403-3.604l-8.261-68.763
				c-0.192-1.603-0.607-2.738-1.245-3.404c-0.324-0.379-0.62-0.611-0.885-0.696c-0.266-0.083-1.184-0.287-2.756-0.61
				c-1.903-0.374-2.967-1.5-3.193-3.379c-0.138-1.145,0.203-2.081,1.021-2.805c0.819-0.726,2.052-1.188,3.701-1.386l1.786-0.214
				l30.639-3.681l1.786-0.214c1.649-0.198,2.957-0.042,3.924,0.47c0.967,0.51,1.52,1.339,1.657,2.483
				c0.226,1.879-0.542,3.225-2.302,4.039c-1.45,0.687-2.295,1.102-2.533,1.246c-0.239,0.146-0.47,0.441-0.696,0.886
				c-0.461,0.798-0.595,2-0.403,3.602l8.261,68.764c0.193,1.604,0.607,2.739,1.245,3.406c0.324,0.379,0.619,0.61,0.885,0.693
				c0.265,0.085,1.184,0.289,2.756,0.61c1.903,0.376,2.968,1.502,3.193,3.38c0.137,1.145-0.203,2.08-1.022,2.806
				c-0.818,0.726-2.052,1.187-3.701,1.385L235.469,332.029z"/>
			<path fill="none" stroke="#000000" stroke-miterlimit="10" d="M239.592,236.411l18.067-2.17l0.999,8.313
				c-2.004,1.495-3.486,3.276-4.445,5.343c-1.595,3.352-2.48,7.197-2.656,11.538l-0.184,4.273c-0.069,1.356-0.436,2.457-1.101,3.302
				c-0.665,0.848-1.571,1.339-2.715,1.477c-1.191,0.143-2.213-0.152-3.068-0.886c-0.854-0.733-1.361-1.763-1.521-3.092
				L239.592,236.411z M293.725,229.907l9.697,80.717c0.215,1.787,0.712,3.028,1.493,3.724c0.42,0.415,0.798,0.66,1.133,0.736
				c0.334,0.075,1.422,0.235,3.263,0.478c2.259,0.241,3.509,1.367,3.751,3.383c0.143,1.191-0.337,2.225-1.439,3.1
				c-0.805,0.654-2.237,1.104-4.298,1.353l-2.267,0.272l-30.639,3.681l-2.268,0.272c-2.016,0.242-3.575,0.116-4.679-0.378
				c-1.105-0.495-1.732-1.36-1.88-2.597c-0.242-2.016,0.706-3.405,2.844-4.176c1.731-0.671,2.75-1.084,3.057-1.237
				c0.307-0.152,0.593-0.477,0.859-0.975c0.593-0.86,0.783-2.185,0.568-3.972l-9.697-80.716L293.725,229.907z M317.494,227.052
				l3.375,28.097c0.16,1.329-0.089,2.45-0.746,3.365c-0.657,0.915-1.58,1.444-2.771,1.587c-1.145,0.138-2.14-0.125-2.987-0.792
				c-0.847-0.664-1.464-1.646-1.853-2.947l-1.19-4.108c-1.199-4.176-2.97-7.702-5.313-10.581c-1.467-1.775-3.329-3.154-5.584-4.138
				l-0.999-8.313L317.494,227.052z"/>
			<path fill="none" stroke="#000000" stroke-miterlimit="10" d="M374.786,315.292l-30.639,3.681l-1.786,0.215
				c-1.648,0.197-2.957,0.042-3.924-0.469c-0.967-0.512-1.52-1.34-1.657-2.484c-0.226-1.878,0.541-3.224,2.302-4.04
				c1.451-0.685,2.295-1.1,2.533-1.245c0.237-0.144,0.47-0.438,0.695-0.884c0.462-0.799,0.596-1.999,0.403-3.604l-8.261-68.763
				c-0.192-1.603-0.607-2.737-1.245-3.404c-0.324-0.379-0.62-0.611-0.885-0.696c-0.266-0.083-1.184-0.287-2.756-0.61
				c-1.903-0.374-2.968-1.5-3.193-3.379c-0.138-1.145,0.203-2.081,1.022-2.806c0.818-0.725,2.052-1.188,3.701-1.386l1.786-0.214
				l30.639-3.681l1.786-0.214c1.648-0.198,2.957-0.041,3.923,0.47c0.967,0.51,1.52,1.339,1.658,2.483
				c0.226,1.879-0.542,3.226-2.302,4.039c-1.451,0.687-2.296,1.102-2.533,1.246c-0.238,0.146-0.47,0.441-0.695,0.886
				c-0.461,0.798-0.596,1.999-0.403,3.602l8.261,68.764c0.193,1.604,0.608,2.739,1.246,3.406c0.324,0.379,0.619,0.611,0.885,0.694
				c0.265,0.085,1.184,0.288,2.756,0.609c1.903,0.376,2.968,1.502,3.194,3.38c0.137,1.145-0.204,2.08-1.022,2.806
				s-2.052,1.187-3.701,1.385L374.786,315.292z"/>
			<path fill="none" stroke="#000000" stroke-miterlimit="10" d="M419.285,212.94l0.999,8.313c-2.653,0.737-4.524,2.17-5.616,4.299
				c-1.092,2.129-1.417,5.026-0.977,8.689l6.817,56.742l0.355,2.954c0.126,1.054,0.477,2.138,1.053,3.254
				c0.575,1.115,1.255,2.044,2.042,2.785c0.842,0.829,1.7,1.389,2.571,1.677c0.872,0.291,2.024,0.42,3.461,0.386l1.007,8.382
				c-8.886,1.067-16.88-0.317-23.984-4.157c-6.26-3.382-11.271-8.344-15.028-14.885c-3.76-6.54-6.206-14.526-7.339-23.962
				c-0.831-6.915-0.655-13.475,0.527-19.68c1.182-6.205,3.319-11.723,6.409-16.555c3.129-4.881,7.085-8.98,11.868-12.296
				c4.781-3.315,9.531-5.256,14.249-5.823L419.285,212.94z M425.718,220.67l-0.999-8.313c2.288,0.098,4.155,0.268,5.602,0.512
				c1.446,0.245,4.081,0.812,7.905,1.698c2.435,0.544,4.041,0.769,4.82,0.675c1.328-0.16,2.264-0.875,2.808-2.149l0.695-1.755
				c0.418-1.166,1.382-1.839,2.894-2.021c1.236-0.148,2.23,0.105,2.982,0.757c0.752,0.653,1.214,1.69,1.385,3.11l3.433,28.577
				c0.22,1.832-0.033,3.209-0.758,4.133c-0.726,0.923-1.615,1.448-2.668,1.575c-1.099,0.132-2.024-0.117-2.772-0.747
				c-0.75-0.63-1.427-1.722-2.031-3.276c-1.396-3.502-2.677-6.229-3.84-8.179c-2.492-4.114-5.16-7.371-8.002-9.771
				c-1.915-1.628-3.779-2.832-5.591-3.614C429.765,221.102,427.813,220.698,425.718,220.67z M436.628,309.744l-1.007-8.382
				c3.54-0.703,7.132-2.505,10.779-5.406c1.946-1.58,3.612-3.58,4.994-6.001c1.381-2.418,2.325-5.005,2.831-7.761
				c0.281-1.521,0.695-2.627,1.239-3.32c0.543-0.692,1.319-1.1,2.327-1.221c1.099-0.132,2.065,0.171,2.897,0.907
				c0.831,0.736,1.322,1.723,1.471,2.959c0.248,2.062-0.243,4.652-1.471,7.772c-1.228,3.122-2.929,6.066-5.106,8.836
				c-2.659,3.386-5.493,6.004-8.499,7.851C444.075,307.826,440.591,309.082,436.628,309.744z"/>
			<path fill="none" stroke="#000000" stroke-miterlimit="10" d="M488.858,224.165l5.211,13.8l-6.827,45.838
				c-0.213,1.326-0.252,2.539-0.12,3.639c0.347,2.885,1.944,4.783,4.796,5.694l2.536,0.811c1.594,0.505,2.487,1.56,2.68,3.163
				c0.275,2.291-1.26,3.635-4.603,4.037l-17.449,2.096c-1.695,0.204-3.077,0.011-4.146-0.582c-1.071-0.591-1.679-1.505-1.828-2.741
				c-0.16-1.329,0.715-2.548,2.626-3.661c1.778-1.05,3.075-1.96,3.888-2.732c0.813-0.771,1.563-1.777,2.25-3.022
				c1.056-2.032,1.811-4.652,2.261-7.867L488.858,224.165z M491.502,206.146l27.684-3.326l28.795,78.422
				c0.537,1.377,1.101,2.587,1.691,3.631c0.517,0.82,1.518,1.421,3.004,1.8c1.25,0.36,2.136,0.766,2.654,1.214
				c0.518,0.449,0.83,1.108,0.935,1.979c0.286,2.381-1.357,3.786-4.93,4.215l-34.279,4.118c-1.374,0.165-2.513-0.033-3.417-0.599
				c-0.904-0.563-1.422-1.397-1.555-2.497c-0.109-0.915-0.01-1.624,0.302-2.127c0.312-0.5,1.067-1.173,2.268-2.015
				c0.86-0.566,1.44-1.148,1.742-1.742c0.3-0.593,0.401-1.303,0.302-2.127c-0.094-0.778-0.245-1.456-0.453-2.037l-3.396-9.695
				l-19.167,2.303l0.873-8.397l15.389-1.85l-19.351-54.331L491.502,206.146z"/>
			<path fill="none" stroke="#000000" stroke-miterlimit="10" d="M599.835,288.255l-30.57,3.673l-1.786,0.214
				c-1.648,0.198-2.956,0.042-3.924-0.469c-0.967-0.511-1.52-1.339-1.657-2.483c-0.226-1.878,0.542-3.225,2.303-4.04
				c1.45-0.685,2.294-1.1,2.533-1.245c0.237-0.144,0.47-0.439,0.695-0.885c0.461-0.798,0.596-1.999,0.403-3.604l-8.262-68.764
				c-0.192-1.603-0.607-2.737-1.245-3.404c-0.324-0.379-0.62-0.611-0.885-0.696c-0.267-0.083-1.185-0.287-2.756-0.61
				c-1.904-0.374-2.968-1.5-3.194-3.379c-0.137-1.145,0.203-2.081,1.022-2.805c0.818-0.726,2.052-1.188,3.7-1.386l1.787-0.215
				l30.639-3.681l2.335-0.281c2.015-0.242,3.49-0.14,4.428,0.305c1.278,0.589,1.989,1.48,2.132,2.669
				c0.242,2.017-0.705,3.407-2.843,4.175c-1.737,0.626-2.758,1.029-3.062,1.204c-0.305,0.176-0.615,0.492-0.932,0.948
				c-0.588,0.907-0.776,2.231-0.567,3.971L599.835,288.255z M605.399,287.586l-0.924-7.693c2.193-0.682,3.914-1.353,5.158-2.014
				c1.245-0.659,2.404-1.544,3.479-2.647c1.742-1.743,3.255-4.038,4.539-6.888c1.283-2.848,2.233-5.958,2.852-9.332
				c0.429-2.607,0.906-4.348,1.428-5.224c0.522-0.875,1.377-1.385,2.569-1.528c1.282-0.154,2.284,0.261,3.006,1.242
				c0.335,0.472,0.594,1.461,0.775,2.973l3.359,27.959L605.399,287.586z"/>
		</g>
	</g>
	<g>
		<g>
			<radialGradient id="SVGID_12_" cx="514.9951" cy="423.8135" r="307.2972" gradientUnits="userSpaceOnUse">
				<stop  offset="0" style="stop-color:#FFF400"/>
				<stop  offset="0.1045" style="stop-color:#FDDE0F"/>
				<stop  offset="0.2211" style="stop-color:#FCCD1A"/>
				<stop  offset="0.3495" style="stop-color:#FBC321"/>
				<stop  offset="0.5108" style="stop-color:#FBC023"/>
				<stop  offset="0.8015" style="stop-color:#FBC223"/>
				<stop  offset="0.906" style="stop-color:#FCC922"/>
				<stop  offset="0.9805" style="stop-color:#FDD421"/>
				<stop  offset="1" style="stop-color:#FED921"/>
				<stop  offset="1" style="stop-color:#FFF805"/>
			</radialGradient>
			<path fill="url(#SVGID_12_)" d="M189.532,418.137l55.776-0.958c12.265,14.688,18.541,30.294,18.825,46.818
				c0.33,19.218-6.432,35.481-20.282,48.788c-13.853,13.311-31.06,20.142-51.621,20.494c-26.713,0.46-49.562-9.288-68.549-29.242
				c-18.99-19.951-28.733-44.486-29.234-73.599c-0.502-29.208,8.569-53.68,27.212-73.415c18.641-19.732,42.183-29.847,70.625-30.336
				c9.704-0.167,20.5,1.619,32.386,5.354l1.005,58.515c-9.298-4.166-17.744-6.184-25.333-6.053
				c-13.741,0.236-24.884,4.706-33.433,13.405c-8.55,8.703-12.705,19.874-12.471,33.517c0.239,13.933,4.465,24.914,12.676,32.94
				c8.211,8.029,19.186,11.925,32.927,11.688c8.742-0.15,13.071-2.77,12.984-7.863c-0.066-3.842-2.981-5.716-8.747-5.617
				l-13.979,0.24L189.532,418.137z"/>
			<radialGradient id="SVGID_13_" cx="514.9951" cy="423.8135" r="307.2972" gradientUnits="userSpaceOnUse">
				<stop  offset="0" style="stop-color:#FFF400"/>
				<stop  offset="0.1045" style="stop-color:#FDDE0F"/>
				<stop  offset="0.2211" style="stop-color:#FCCD1A"/>
				<stop  offset="0.3495" style="stop-color:#FBC321"/>
				<stop  offset="0.5108" style="stop-color:#FBC023"/>
				<stop  offset="0.8015" style="stop-color:#FBC223"/>
				<stop  offset="0.906" style="stop-color:#FCC922"/>
				<stop  offset="0.9805" style="stop-color:#FDD421"/>
				<stop  offset="1" style="stop-color:#FED921"/>
				<stop  offset="1" style="stop-color:#FFF805"/>
			</radialGradient>
			<path fill="url(#SVGID_13_)" d="M358.645,426.764l0.892,51.886l-16.863,0.29l0.805,46.84l-58.515,1.005l-2.15-125.101
				c-0.416-24.212,5.866-43.134,18.848-56.764c12.979-13.631,31.434-20.651,55.359-21.063c23.06-0.396,40.218,5.389,51.478,17.352
				c11.257,11.967,17.105,30.631,17.541,55.997l2.185,127.117l-58.515,1.005l-2.118-123.227c-0.132-7.686-1.138-13.003-3.013-15.95
				c-1.877-2.945-5.171-4.381-9.877-4.3c-9.129,0.157-13.575,7.059-13.34,20.701l0.421,24.501L358.645,426.764z"/>
			<radialGradient id="SVGID_14_" cx="514.9951" cy="423.8135" r="307.2972" gradientUnits="userSpaceOnUse">
				<stop  offset="0" style="stop-color:#FFF400"/>
				<stop  offset="0.1045" style="stop-color:#FDDE0F"/>
				<stop  offset="0.2211" style="stop-color:#FCCD1A"/>
				<stop  offset="0.3495" style="stop-color:#FBC321"/>
				<stop  offset="0.5108" style="stop-color:#FBC023"/>
				<stop  offset="0.8015" style="stop-color:#FBC223"/>
				<stop  offset="0.906" style="stop-color:#FCC922"/>
				<stop  offset="0.9805" style="stop-color:#FDD421"/>
				<stop  offset="1" style="stop-color:#FED921"/>
				<stop  offset="1" style="stop-color:#FFF805"/>
			</radialGradient>
			<path fill="url(#SVGID_14_)" d="M459.644,523.783l-2.437-141.818c-0.302-17.583,4.784-32.037,15.258-43.369
				c10.473-11.327,24.213-17.139,41.22-17.431c20.178-0.347,35.853,8.661,47.03,27.017c6.458-10.106,13.445-17.363,20.963-21.769
				c7.516-4.405,16.848-6.706,27.994-6.897c17.679-0.304,31.321,5.037,40.931,16.02c9.607,10.986,14.592,26.95,14.951,47.896
				l2.351,136.774l-58.516,1.005l-2.199-127.982c-0.108-6.341-0.686-10.535-1.729-12.584c-1.045-2.048-3.105-3.048-6.179-2.994
				c-5.766,0.099-8.564,5.05-8.396,14.85l2.216,128.991l-58.515,1.005l-2.199-127.982c-0.106-6.244-0.708-10.415-1.801-12.511
				c-1.094-2.095-3.178-3.118-6.251-3.065c-5.766,0.1-8.558,5.387-8.378,15.858l2.199,127.982L459.644,523.783z"/>
			<radialGradient id="SVGID_15_" cx="514.9951" cy="423.8135" r="307.2972" gradientUnits="userSpaceOnUse">
				<stop  offset="0" style="stop-color:#FFF400"/>
				<stop  offset="0.1045" style="stop-color:#FDDE0F"/>
				<stop  offset="0.2211" style="stop-color:#FCCD1A"/>
				<stop  offset="0.3495" style="stop-color:#FBC321"/>
				<stop  offset="0.5108" style="stop-color:#FBC023"/>
				<stop  offset="0.8015" style="stop-color:#FBC223"/>
				<stop  offset="0.906" style="stop-color:#FCC922"/>
				<stop  offset="0.9805" style="stop-color:#FDD421"/>
				<stop  offset="1" style="stop-color:#FED921"/>
				<stop  offset="1" style="stop-color:#FFF805"/>
			</radialGradient>
			<path fill="url(#SVGID_15_)" d="M806.217,397.594l0.753,43.813l-38.193,0.656c-5.188,0.089-8.851,0.922-10.986,2.495
				c-2.136,1.575-3.171,4.188-3.108,7.839c0.071,4.132,1.221,6.826,3.455,8.085c2.23,1.26,6.757,1.83,13.581,1.713l39.346-0.676
				l0.966,56.209l-45.976,0.79c-21.619,0.371-38.235-4.509-49.847-14.642c-11.611-10.132-17.584-24.949-17.919-44.456l-1.325-77.106
				c-0.323-18.831,4.83-33.529,15.462-44.093c10.631-10.563,25.747-16.012,45.348-16.349l50.876-0.874l0.971,56.497l-37.328,0.641
				c-10.089,0.174-15.077,3.527-14.965,10.061c0.065,3.845,1.313,6.489,3.741,7.937c2.426,1.45,6.715,2.12,12.864,2.015
				L806.217,397.594z"/>
			<radialGradient id="SVGID_16_" cx="514.9951" cy="423.8135" r="307.2972" gradientUnits="userSpaceOnUse">
				<stop  offset="0" style="stop-color:#FFF400"/>
				<stop  offset="0.1045" style="stop-color:#FDDE0F"/>
				<stop  offset="0.2211" style="stop-color:#FCCD1A"/>
				<stop  offset="0.3495" style="stop-color:#FBC321"/>
				<stop  offset="0.5108" style="stop-color:#FBC023"/>
				<stop  offset="0.8015" style="stop-color:#FBC223"/>
				<stop  offset="0.906" style="stop-color:#FCC922"/>
				<stop  offset="0.9805" style="stop-color:#FDD421"/>
				<stop  offset="1" style="stop-color:#FED921"/>
				<stop  offset="1" style="stop-color:#FFF805"/>
			</radialGradient>
			<path fill="url(#SVGID_16_)" d="M934.599,317.969l0.964,56.064c-4.254-1.368-7.531-2.033-9.837-1.993
				c-4.421,0.076-8.188,1.776-11.303,5.097c-3.114,3.321-4.632,7.287-4.553,11.899c0.067,3.94,1.884,8.905,5.445,14.899l4.602,7.706
				c8.313,13.891,12.582,27.369,12.806,40.435c0.329,19.121-6.191,35.429-19.559,48.921c-13.37,13.493-29.854,20.408-49.454,20.745
				c-9.417,0.162-18.773-1.841-28.072-6.006l-0.979-56.929c5.634,3.46,10.613,5.152,14.938,5.078
				c5.091-0.088,9.318-1.625,12.68-4.616c3.359-2.988,5.004-6.692,4.928-11.113c-0.05-2.883-2.897-9.128-8.54-18.738
				c-9.009-15.222-13.644-30.521-13.908-45.895c-0.318-18.543,6.013-34.632,18.994-48.262
				c12.979-13.631,28.646-20.604,46.999-20.919C918.819,314.204,926.771,315.414,934.599,317.969z"/>
		</g>
		<g>
			<path fill="none" stroke="#000000" stroke-miterlimit="10" d="M189.532,418.137l55.776-0.958
				c12.265,14.688,18.541,30.294,18.825,46.818c0.33,19.218-6.432,35.481-20.282,48.788c-13.853,13.311-31.06,20.142-51.621,20.494
				c-26.713,0.46-49.562-9.288-68.549-29.242c-18.99-19.951-28.733-44.486-29.234-73.599c-0.502-29.208,8.569-53.68,27.212-73.415
				c18.641-19.732,42.183-29.847,70.625-30.336c9.704-0.167,20.5,1.619,32.386,5.354l1.005,58.515
				c-9.298-4.166-17.744-6.184-25.333-6.053c-13.741,0.236-24.884,4.706-33.433,13.405c-8.55,8.703-12.705,19.874-12.471,33.517
				c0.239,13.933,4.465,24.914,12.676,32.94c8.211,8.029,19.186,11.925,32.927,11.688c8.742-0.15,13.071-2.77,12.984-7.863
				c-0.066-3.842-2.981-5.716-8.747-5.617l-13.979,0.24L189.532,418.137z"/>
			<path fill="none" stroke="#000000" stroke-miterlimit="10" d="M358.645,426.764l0.892,51.886l-16.863,0.29l0.805,46.84
				l-58.515,1.005l-2.15-125.101c-0.416-24.212,5.866-43.134,18.848-56.764c12.979-13.631,31.434-20.651,55.359-21.063
				c23.06-0.396,40.218,5.389,51.478,17.352c11.257,11.967,17.105,30.631,17.541,55.997l2.185,127.117l-58.515,1.005l-2.118-123.227
				c-0.132-7.686-1.138-13.003-3.013-15.95c-1.877-2.945-5.171-4.381-9.877-4.3c-9.129,0.157-13.575,7.059-13.34,20.701
				l0.421,24.501L358.645,426.764z"/>
			<path fill="none" stroke="#000000" stroke-miterlimit="10" d="M459.644,523.783l-2.437-141.818
				c-0.302-17.583,4.784-32.037,15.258-43.369c10.473-11.327,24.213-17.139,41.22-17.431c20.178-0.347,35.853,8.661,47.03,27.017
				c6.458-10.106,13.445-17.363,20.963-21.769c7.516-4.405,16.848-6.706,27.994-6.897c17.679-0.304,31.321,5.037,40.931,16.02
				c9.607,10.986,14.592,26.95,14.951,47.896l2.351,136.774l-58.516,1.005l-2.199-127.982c-0.108-6.341-0.686-10.535-1.729-12.584
				c-1.045-2.048-3.105-3.048-6.179-2.994c-5.766,0.099-8.564,5.05-8.396,14.85l2.216,128.991l-58.515,1.005l-2.199-127.982
				c-0.106-6.244-0.708-10.415-1.801-12.511c-1.094-2.095-3.178-3.118-6.251-3.065c-5.766,0.1-8.558,5.387-8.378,15.858
				l2.199,127.982L459.644,523.783z"/>
			<path fill="none" stroke="#000000" stroke-miterlimit="10" d="M806.217,397.594l0.753,43.813l-38.193,0.656
				c-5.188,0.089-8.851,0.922-10.986,2.495c-2.136,1.575-3.171,4.188-3.108,7.839c0.071,4.132,1.221,6.826,3.455,8.085
				c2.23,1.26,6.757,1.83,13.581,1.713l39.346-0.676l0.966,56.209l-45.976,0.79c-21.619,0.371-38.235-4.509-49.847-14.642
				c-11.611-10.132-17.584-24.949-17.919-44.456l-1.325-77.106c-0.323-18.831,4.83-33.529,15.462-44.093
				c10.631-10.563,25.747-16.012,45.348-16.349l50.876-0.874l0.971,56.497l-37.328,0.641c-10.089,0.174-15.077,3.527-14.965,10.061
				c0.065,3.845,1.313,6.489,3.741,7.937c2.426,1.45,6.715,2.12,12.864,2.015L806.217,397.594z"/>
			<path fill="none" stroke="#000000" stroke-miterlimit="10" d="M934.599,317.969l0.964,56.064
				c-4.254-1.368-7.531-2.033-9.837-1.993c-4.421,0.076-8.188,1.776-11.303,5.097c-3.114,3.321-4.632,7.287-4.553,11.899
				c0.067,3.94,1.884,8.905,5.445,14.899l4.602,7.706c8.313,13.891,12.582,27.369,12.806,40.435
				c0.329,19.121-6.191,35.429-19.559,48.921c-13.37,13.493-29.854,20.408-49.454,20.745c-9.417,0.162-18.773-1.841-28.072-6.006
				l-0.979-56.929c5.634,3.46,10.613,5.152,14.938,5.078c5.091-0.088,9.318-1.625,12.68-4.616c3.359-2.988,5.004-6.692,4.928-11.113
				c-0.05-2.883-2.897-9.128-8.54-18.738c-9.009-15.222-13.644-30.521-13.908-45.895c-0.318-18.543,6.013-34.632,18.994-48.262
				c12.979-13.631,28.646-20.604,46.999-20.919C918.819,314.204,926.771,315.414,934.599,317.969z"/>
		</g>
	</g>
	<g>
	</g>
	<g>
	</g>
	<g>
	</g>
	<g>
	</g>
	<g>
	</g>
	<g>
	</g>
	<g>
	</g>
	<g>
	</g>
	<g>
	</g>
	<g>
	</g>
	<g>
	</g>
	<g>
	</g>
	<g>
	</g>
	<g>
	</g>
	<g>
	</g>
</g>
</svg>
